<?xml version="1.0" encoding="utf-8"?>
<!-- Generator: Adobe Illustrator 22.1.0, SVG Export Plug-In . SVG Version: 6.00 Build 0)  -->
<svg version="1.1" id="Layer_1" xmlns="http://www.w3.org/2000/svg" xmlns:xlink="http://www.w3.org/1999/xlink" x="0px" y="0px"
	 viewBox="0 0 442.8 100" style="enable-background:new 0 0 442.8 100;" xml:space="preserve">
<style type="text/css">
	.st0{fill:#BA1F40;}
	.st1{fill:#606061;}
	.st2{fill:#FFFFFF;}
</style>
<g>
	<g>
		<g>
			<path class="st0" d="M107.9,23h2.5v11.2h-2.5l-5.3-7v7h-2.5V23h2.3l5.5,7.2V23z"/>
			<path class="st0" d="M121.1,34.2l-1-2.4h-4.8l-1,2.4h-2.7l4.8-11.2h2.4l4.8,11.2H121.1z M117.7,26.3l-1.4,3.2h2.8L117.7,26.3z"/>
			<path class="st0" d="M128.9,25.2v9h-2.5v-9h-3.1V23h8.8v2.2H128.9z"/>
			<path class="st0" d="M133.9,23h2.5v11.2h-2.5V23z"/>
			<path class="st0" d="M148.6,32.7c-1.1,1.1-2.5,1.7-4.2,1.7s-3-0.6-4.2-1.7c-1.1-1.1-1.7-2.5-1.7-4.1s0.6-3,1.7-4.1
				c1.1-1.1,2.5-1.7,4.2-1.7s3,0.6,4.2,1.7c1.1,1.1,1.7,2.5,1.7,4.1S149.7,31.5,148.6,32.7z M147.7,28.5c0-1-0.3-1.8-1-2.6
				s-1.4-1.1-2.4-1.1c-0.9,0-1.7,0.4-2.4,1.1c-0.6,0.7-1,1.6-1,2.6s0.3,1.8,1,2.5c0.6,0.7,1.4,1,2.4,1c0.9,0,1.7-0.3,2.4-1
				C147.4,30.4,147.7,29.5,147.7,28.5z"/>
			<path class="st0" d="M160.2,23h2.5v11.2h-2.5l-5.3-7v7h-2.5V23h2.3l5.5,7.2V23z"/>
			<path class="st0" d="M173.4,34.2l-1-2.4h-4.7l-1,2.4H164l4.8-11.2h2.4l4.8,11.2H173.4z M170.1,26.3l-1.4,3.2h2.8L170.1,26.3z"/>
			<path class="st0" d="M177.4,34.2V23h2.5v9h4.8v2.2H177.4z"/>
			<path class="st0" d="M195.8,32c1.2,0,2.2-0.5,3-1.5l1.6,1.6c-1.3,1.4-2.8,2.1-4.5,2.1s-3.1-0.5-4.3-1.6c-1.1-1.1-1.7-2.5-1.7-4.1
				c0-1.7,0.6-3,1.7-4.2c1.1-1.1,2.5-1.7,4.2-1.7c1.8,0,3.4,0.7,4.6,2.1l-1.6,1.8c-0.8-1-1.8-1.5-2.9-1.5c-0.9,0-1.7,0.3-2.4,0.9
				s-1,1.4-1,2.5c0,1,0.3,1.9,0.9,2.5C194.2,31.7,194.9,32,195.8,32z"/>
			<path class="st0" d="M210.3,34.2l-1-2.4h-4.7l-1,2.4h-2.7l4.8-11.2h2.4l4.8,11.2H210.3z M206.9,26.3l-1.4,3.2h2.8L206.9,26.3z"/>
			<path class="st0" d="M222.1,23h2.5v11.2h-2.5l-5.3-7v7h-2.5V23h2.3l5.5,7.2V23z"/>
			<path class="st0" d="M232.5,32c1.2,0,2.2-0.5,3-1.5l1.6,1.6c-1.3,1.4-2.8,2.1-4.5,2.1c-1.7,0-3.1-0.5-4.3-1.6
				c-1.1-1.1-1.7-2.5-1.7-4.1c0-1.7,0.6-3,1.7-4.2c1.1-1.1,2.5-1.7,4.2-1.7c1.8,0,3.4,0.7,4.6,2.1l-1.6,1.8c-0.8-1-1.8-1.5-2.9-1.5
				c-0.9,0-1.7,0.3-2.4,0.9s-1,1.4-1,2.5c0,1,0.3,1.9,0.9,2.5C230.8,31.7,231.6,32,232.5,32z"/>
			<path class="st0" d="M247.1,23v2.2h-5.6v2.3h5v2.1h-5V32h5.7v2.2H239V23H247.1z"/>
			<path class="st0" d="M258.6,26.7c0,1.8-0.7,2.9-2.1,3.5l2.8,4h-3.1l-2.5-3.6H252v3.6h-2.5V23h4.2c1.7,0,3,0.3,3.7,0.9
				S258.6,25.4,258.6,26.7z M255.6,28.1c0.3-0.3,0.5-0.7,0.5-1.3c0-0.6-0.2-1-0.5-1.2s-0.9-0.3-1.7-0.3H252v3.3h1.8
				C254.7,28.5,255.3,28.3,255.6,28.1z"/>
			<path class="st0" d="M265.4,23h2.5v11.2h-2.5V23z"/>
			<path class="st0" d="M278.4,23h2.5v11.2h-2.5l-5.3-7v7h-2.5V23h2.3l5.5,7.2V23z"/>
			<path class="st0" d="M286.3,25.2c-0.2,0.2-0.4,0.5-0.4,0.8s0.1,0.6,0.4,0.8c0.3,0.2,1,0.4,2,0.7c1.1,0.3,1.9,0.7,2.5,1.2
				s0.9,1.3,0.9,2.3s-0.4,1.8-1.1,2.4c-0.8,0.6-1.7,0.9-3,0.9c-1.8,0-3.4-0.7-4.8-2l1.5-1.8c1.2,1.1,2.3,1.6,3.3,1.6
				c0.5,0,0.8-0.1,1.1-0.3c0.3-0.2,0.4-0.5,0.4-0.8s-0.1-0.6-0.4-0.8c-0.3-0.2-0.8-0.4-1.6-0.6c-1.3-0.3-2.3-0.7-2.9-1.2
				s-0.9-1.3-0.9-2.3c0-1.1,0.4-1.9,1.1-2.5c0.8-0.6,1.7-0.9,2.9-0.9c0.7,0,1.5,0.1,2.2,0.4s1.4,0.6,2,1.1l-1.3,1.8
				c-1-0.7-2-1.1-3-1.1C286.9,24.9,286.5,25,286.3,25.2z"/>
			<path class="st0" d="M298.5,25.2v9H296v-9h-3.2V23h8.8v2.2H298.5z"/>
			<path class="st0" d="M303.5,23h2.5v11.2h-2.5V23z"/>
			<path class="st0" d="M313.5,25.2v9H311v-9h-3.2V23h8.8v2.2H313.5z"/>
			<path class="st0" d="M321.5,31.3c0.4,0.5,1,0.8,1.7,0.8s1.3-0.3,1.7-0.8s0.6-1.2,0.6-2.1V23h2.5v6.3c0,1.6-0.4,2.9-1.3,3.7
				c-0.9,0.9-2,1.3-3.4,1.3s-2.5-0.4-3.4-1.3c-0.9-0.9-1.4-2.1-1.4-3.7V23h2.5v6.2C320.8,30.1,321,30.8,321.5,31.3z"/>
			<path class="st0" d="M335.2,25.2v9h-2.5v-9h-3.2V23h8.8v2.2H335.2z"/>
			<path class="st0" d="M348.3,23v2.2h-5.6v2.3h5v2.1h-5V32h5.7v2.2h-8.2V23H348.3z"/>
		</g>
	</g>
	<g>
		<g>
			<path class="st1" d="M106.3,53.2c1.5,0,2.8-0.6,3.8-1.8l2,2.1c-1.6,1.8-3.5,2.7-5.6,2.7c-2.2,0-3.9-0.7-5.3-2
				c-1.4-1.4-2.1-3.1-2.1-5.2c0-2.1,0.7-3.8,2.1-5.2c1.4-1.4,3.2-2.1,5.2-2.1c2.3,0,4.2,0.9,5.8,2.6l-1.9,2.2
				c-1-1.2-2.2-1.8-3.7-1.8c-1.2,0-2.2,0.4-3,1.2s-1.2,1.8-1.2,3.1s0.4,2.3,1.2,3.1C104.3,52.8,105.2,53.2,106.3,53.2z"/>
			<path class="st1" d="M123.6,54.4c-1.2,1.1-2.6,1.7-4.3,1.7c-1.6,0-3-0.5-4.1-1.5s-1.6-2.4-1.6-4.1c0-1.7,0.5-3,1.6-4
				s2.4-1.5,3.8-1.5s2.7,0.4,3.8,1.3c1,0.9,1.6,2.1,1.6,3.7v1.6h-7.8c0.1,0.6,0.4,1.1,0.9,1.4c0.5,0.4,1.1,0.6,1.8,0.6
				c1.1,0,1.9-0.4,2.6-1.1L123.6,54.4z M120.7,48.1c-0.4-0.3-0.9-0.5-1.5-0.5s-1.1,0.2-1.6,0.5c-0.5,0.4-0.8,0.8-0.9,1.5h4.7
				C121.3,48.9,121.1,48.4,120.7,48.1z"/>
			<path class="st1" d="M129.6,50v6h-3V45.2h3v1.2c0.9-0.9,1.9-1.4,3.1-1.4s2.1,0.4,2.9,1.2c0.8,0.8,1.1,1.9,1.1,3.2V56h-3v-6.1
				c0-1.7-0.6-2.5-1.8-2.5c-0.6,0-1.1,0.2-1.6,0.6C129.8,48.5,129.6,49.2,129.6,50z"/>
			<path class="st1" d="M142.8,47.4v4.8c0,0.4,0.1,0.7,0.3,1c0.2,0.2,0.5,0.3,0.8,0.3c0.6,0,1-0.3,1.4-0.8l1.1,2.1
				c-0.9,0.9-1.9,1.3-3,1.3c-1,0-1.9-0.3-2.6-1c-0.7-0.7-1.1-1.6-1.1-2.8v-5h-1.3v-2.2h1.3V42h3v3.2h2.6v2.2H142.8z"/>
			<path class="st1" d="M157.4,54.4c-1.2,1.1-2.6,1.7-4.3,1.7c-1.6,0-3-0.5-4.1-1.5s-1.6-2.4-1.6-4.1c0-1.7,0.5-3,1.6-4
				s2.4-1.5,3.8-1.5c1.5,0,2.7,0.4,3.8,1.3c1,0.9,1.6,2.1,1.6,3.7v1.6h-7.8c0.1,0.6,0.4,1.1,0.9,1.4c0.5,0.4,1.1,0.6,1.8,0.6
				c1.1,0,1.9-0.4,2.6-1.1L157.4,54.4z M154.5,48.1c-0.4-0.3-0.9-0.5-1.5-0.5s-1.1,0.2-1.6,0.5c-0.5,0.4-0.8,0.8-0.9,1.5h4.7
				C155.1,48.9,154.9,48.4,154.5,48.1z"/>
			<path class="st1" d="M166.1,47.9c-0.9,0-1.6,0.3-2,1c-0.4,0.6-0.7,1.5-0.7,2.5V56h-3V45.2h3v1.4c0.4-0.4,0.9-0.8,1.5-1.1
				s1.2-0.5,1.8-0.5v2.8L166.1,47.9L166.1,47.9z"/>
			<path class="st1" d="M177.5,44.6v0.7h2.6v2.2h-2.6V56h-3v-8.5h-1.3v-2.2h1.3v-0.7c0-1.2,0.4-2.1,1.1-2.8c0.7-0.7,1.6-1,2.7-1
				c1.1,0,2,0.4,2.9,1.2l-1.1,2c-0.4-0.5-0.9-0.8-1.5-0.8c-0.3,0-0.6,0.1-0.8,0.3C177.6,43.9,177.5,44.2,177.5,44.6z"/>
			<path class="st1" d="M192.4,50.6c0,1.6-0.5,2.9-1.6,3.9c-1.1,1.1-2.4,1.6-4.1,1.6c-1.6,0-3-0.5-4.1-1.6s-1.6-2.4-1.6-3.9
				c0-1.6,0.5-2.9,1.6-4s2.4-1.6,4.1-1.6c1.6,0,3,0.5,4.1,1.6C191.9,47.7,192.4,49.1,192.4,50.6z M184.1,50.6c0,0.9,0.2,1.6,0.8,2.1
				c0.5,0.6,1.1,0.8,1.9,0.8c0.8,0,1.4-0.3,1.9-0.8c0.5-0.6,0.8-1.3,0.8-2.1c0-0.9-0.2-1.6-0.8-2.2c-0.5-0.6-1.1-0.8-1.9-0.8
				c-0.8,0-1.4,0.3-1.9,0.8C184.3,49,184.1,49.7,184.1,50.6z"/>
			<path class="st1" d="M200.3,47.9c-0.9,0-1.6,0.3-2,1c-0.4,0.6-0.7,1.5-0.7,2.5V56h-3V45.2h3v1.4c0.4-0.4,0.9-0.8,1.5-1.1
				s1.2-0.5,1.8-0.5v2.8L200.3,47.9L200.3,47.9z"/>
			<path class="st1" d="M214.6,56h-6.1V42h5.4c0.9,0,1.8,0.1,2.4,0.3c0.7,0.2,1.2,0.5,1.6,0.9c0.6,0.7,0.9,1.5,0.9,2.4
				c0,1.1-0.4,1.9-1.1,2.4c-0.2,0.2-0.4,0.3-0.5,0.3s-0.3,0.1-0.5,0.2c0.9,0.2,1.6,0.6,2.1,1.2c0.5,0.6,0.8,1.3,0.8,2.2
				c0,1-0.3,1.8-1,2.6C217.8,55.6,216.5,56,214.6,56z M211.6,47.7h1.5c0.9,0,1.5-0.1,1.9-0.3s0.6-0.6,0.6-1.2c0-0.6-0.2-1-0.6-1.2
				c-0.4-0.2-1-0.3-2-0.3h-1.5v3H211.6z M211.6,53.4h2.1c0.9,0,1.6-0.1,2-0.3s0.7-0.7,0.7-1.3s-0.2-1.1-0.7-1.3s-1.2-0.3-2.3-0.3
				h-1.8V53.4z"/>
			<path class="st1" d="M222.2,43.9c-0.3-0.3-0.5-0.8-0.5-1.2c0-0.5,0.2-0.9,0.5-1.2s0.8-0.5,1.2-0.5c0.5,0,0.9,0.2,1.2,0.5
				s0.5,0.8,0.5,1.2c0,0.5-0.2,0.9-0.5,1.2s-0.8,0.5-1.2,0.5C222.9,44.4,222.5,44.2,222.2,43.9z M224.9,56h-3V45.2h3V56z"/>
			<path class="st1" d="M238.5,50.6c0,1.6-0.5,2.9-1.6,3.9c-1.1,1.1-2.4,1.6-4.1,1.6c-1.6,0-3-0.5-4.1-1.6s-1.6-2.4-1.6-3.9
				c0-1.6,0.5-2.9,1.6-4s2.4-1.6,4.1-1.6c1.6,0,3,0.5,4.1,1.6C238,47.7,238.5,49.1,238.5,50.6z M230.2,50.6c0,0.9,0.2,1.6,0.8,2.1
				c0.5,0.6,1.1,0.8,1.9,0.8c0.8,0,1.4-0.3,1.9-0.8c0.5-0.6,0.8-1.3,0.8-2.1c0-0.9-0.2-1.6-0.8-2.2c-0.5-0.6-1.1-0.8-1.9-0.8
				c-0.8,0-1.4,0.3-1.9,0.8C230.4,49,230.2,49.7,230.2,50.6z"/>
			<path class="st1" d="M250.6,50.2V56h-3v-5.9c0-0.9-0.1-1.5-0.4-1.9s-0.7-0.6-1.3-0.6c-0.6,0-1.1,0.2-1.5,0.7
				c-0.4,0.4-0.7,1.1-0.7,1.9V56h-3V45.2h3v1.2c0.8-0.9,1.8-1.4,2.8-1.4c0.7,0,1.3,0.2,1.9,0.6c0.6,0.4,1,0.9,1.2,1.5
				c0.4-0.7,1-1.2,1.7-1.5c0.7-0.4,1.4-0.5,2.1-0.5c1.3,0,2.3,0.4,3.1,1.1c0.8,0.8,1.2,1.8,1.2,3.3V56h-3v-5.9
				c0-1.7-0.6-2.5-1.8-2.5c-0.6,0-1.1,0.2-1.6,0.7C250.9,48.7,250.6,49.4,250.6,50.2z"/>
			<path class="st1" d="M269.7,54.4c-1.2,1.1-2.6,1.7-4.3,1.7c-1.6,0-3-0.5-4.1-1.5s-1.6-2.4-1.6-4.1c0-1.7,0.5-3,1.6-4
				s2.4-1.5,3.8-1.5c1.5,0,2.7,0.4,3.8,1.3c1,0.9,1.6,2.1,1.6,3.7v1.6h-7.8c0.1,0.6,0.4,1.1,0.9,1.4c0.5,0.4,1.1,0.6,1.8,0.6
				c1.1,0,1.9-0.4,2.6-1.1L269.7,54.4z M266.9,48.1c-0.4-0.3-0.9-0.5-1.5-0.5s-1.1,0.2-1.6,0.5c-0.5,0.4-0.8,0.8-0.9,1.5h4.7
				C267.5,48.9,267.3,48.4,266.9,48.1z"/>
			<path class="st1" d="M277.1,56.2c-1.3,0-2.4-0.5-3.4-1.6s-1.5-2.4-1.5-4s0.5-2.9,1.5-3.9s2.1-1.5,3.4-1.5s2.4,0.5,3.2,1.4v-5.3h3
				V56h-3v-1.4C279.4,55.6,278.4,56.2,277.1,56.2z M275.2,50.6c0,0.9,0.3,1.6,0.8,2.1c0.5,0.6,1.1,0.8,1.8,0.8
				c0.7,0,1.3-0.3,1.8-0.8c0.5-0.6,0.7-1.3,0.7-2.1c0-0.9-0.2-1.6-0.7-2.2c-0.5-0.6-1.1-0.9-1.8-0.9c-0.7,0-1.3,0.3-1.8,0.9
				C275.4,49,275.2,49.8,275.2,50.6z"/>
			<path class="st1" d="M286.3,43.9c-0.3-0.3-0.5-0.8-0.5-1.2c0-0.5,0.2-0.9,0.5-1.2s0.8-0.5,1.2-0.5c0.5,0,0.9,0.2,1.2,0.5
				c0.3,0.3,0.5,0.8,0.5,1.2c0,0.5-0.2,0.9-0.5,1.2s-0.8,0.5-1.2,0.5S286.7,44.2,286.3,43.9z M289.1,56h-3V45.2h3V56z"/>
			<path class="st1" d="M297.1,53.5c1,0,1.9-0.5,2.7-1.5l1.8,2c-1.4,1.4-2.9,2.2-4.5,2.2s-3-0.5-4.1-1.5s-1.7-2.4-1.7-4s0.6-3,1.7-4
				s2.5-1.6,4-1.6c0.8,0,1.6,0.2,2.4,0.5s1.5,0.8,2.1,1.4l-1.6,2c-0.3-0.4-0.8-0.7-1.3-1c-0.5-0.2-1-0.3-1.5-0.3
				c-0.8,0-1.5,0.3-2,0.8c-0.6,0.5-0.8,1.2-0.8,2.1c0,0.9,0.3,1.6,0.8,2.1C295.7,53.2,296.3,53.5,297.1,53.5z"/>
			<path class="st1" d="M312.7,56h-2.8v-1.3c-0.8,1-1.7,1.5-2.9,1.5c-1.1,0-2.1-0.3-2.9-1s-1.2-1.5-1.2-2.6s0.4-1.9,1.2-2.5
				c0.8-0.5,1.9-0.8,3.3-0.8h2.2v-0.1c0-1.1-0.6-1.7-1.8-1.7c-0.5,0-1.1,0.1-1.7,0.3s-1.1,0.5-1.5,0.8l-1.3-1.9c1.4-1,3-1.5,4.8-1.5
				c1.3,0,2.4,0.3,3.2,1c0.8,0.7,1.2,1.7,1.2,3.1V56H312.7z M309.7,51.9v-0.5h-1.9c-1.2,0-1.8,0.4-1.8,1.1c0,0.4,0.1,0.7,0.4,0.9
				s0.7,0.3,1.2,0.3s1-0.2,1.4-0.5C309.5,52.9,309.7,52.4,309.7,51.9z"/>
			<path class="st1" d="M318.5,56h-3V41.2h3V56z"/>
			<path class="st1" d="M326.9,42h3.1v14h-3.1V42z"/>
			<path class="st1" d="M336,50v6h-3V45.2h3v1.2c0.9-0.9,1.9-1.4,3.1-1.4s2.1,0.4,2.9,1.2s1.1,1.9,1.1,3.2V56h-3v-6.1
				c0-1.7-0.6-2.5-1.8-2.5c-0.6,0-1.1,0.2-1.6,0.6C336.3,48.5,336,49.2,336,50z"/>
			<path class="st1" d="M349.3,44.6v0.7h2.6v2.2h-2.6V56h-3v-8.5H345v-2.2h1.3v-0.7c0-1.2,0.4-2.1,1.1-2.8s1.6-1,2.7-1
				s2,0.4,2.9,1.2l-1.1,2c-0.4-0.5-0.9-0.8-1.5-0.8c-0.3,0-0.6,0.1-0.8,0.3C349.4,43.9,349.3,44.2,349.3,44.6z"/>
			<path class="st1" d="M364.3,50.6c0,1.6-0.5,2.9-1.6,3.9c-1.1,1.1-2.4,1.6-4.1,1.6c-1.6,0-3-0.5-4.1-1.6s-1.6-2.4-1.6-3.9
				c0-1.6,0.5-2.9,1.6-4s2.4-1.6,4.1-1.6c1.6,0,3,0.5,4.1,1.6C363.7,47.7,364.3,49.1,364.3,50.6z M355.9,50.6c0,0.9,0.2,1.6,0.8,2.1
				c0.5,0.6,1.1,0.8,1.9,0.8s1.4-0.3,1.9-0.8c0.5-0.6,0.8-1.3,0.8-2.1c0-0.9-0.2-1.6-0.8-2.2c-0.5-0.6-1.1-0.8-1.9-0.8
				s-1.4,0.3-1.9,0.8C356.1,49,355.9,49.7,355.9,50.6z"/>
			<path class="st1" d="M372.1,47.9c-0.9,0-1.6,0.3-2,1c-0.4,0.6-0.7,1.5-0.7,2.5V56h-3V45.2h3v1.4c0.4-0.4,0.9-0.8,1.5-1.1
				s1.2-0.5,1.8-0.5v2.8L372.1,47.9L372.1,47.9z"/>
			<path class="st1" d="M384.6,50.2V56h-3v-5.9c0-0.9-0.1-1.5-0.4-1.9s-0.7-0.6-1.3-0.6c-0.6,0-1.1,0.2-1.5,0.7
				c-0.4,0.4-0.7,1.1-0.7,1.9V56h-3V45.2h3v1.2c0.8-0.9,1.8-1.4,2.8-1.4c0.7,0,1.3,0.2,1.9,0.6c0.6,0.4,1,0.9,1.2,1.5
				c0.4-0.7,1-1.2,1.7-1.5c0.7-0.4,1.4-0.5,2.1-0.5c1.3,0,2.3,0.4,3.1,1.1c0.8,0.8,1.2,1.8,1.2,3.3V56h-3v-5.9
				c0-1.7-0.6-2.5-1.8-2.5c-0.6,0-1.1,0.2-1.6,0.7C384.8,48.7,384.6,49.4,384.6,50.2z"/>
			<path class="st1" d="M403.5,56h-2.8v-1.3c-0.8,1-1.7,1.5-2.9,1.5c-1.1,0-2.1-0.3-2.9-1s-1.2-1.5-1.2-2.6s0.4-1.9,1.2-2.5
				c0.8-0.5,1.9-0.8,3.3-0.8h2.2v-0.1c0-1.1-0.6-1.7-1.8-1.7c-0.5,0-1.1,0.1-1.7,0.3s-1.1,0.5-1.5,0.8l-1.3-1.9c1.4-1,3-1.5,4.8-1.5
				c1.3,0,2.4,0.3,3.2,1c0.8,0.7,1.2,1.7,1.2,3.1V56H403.5z M400.5,51.9v-0.5h-1.9c-1.2,0-1.8,0.4-1.8,1.1c0,0.4,0.1,0.7,0.4,0.9
				s0.7,0.3,1.2,0.3s1-0.2,1.4-0.5C400.3,52.9,400.5,52.4,400.5,51.9z"/>
			<path class="st1" d="M409.7,47.4v4.8c0,0.4,0.1,0.7,0.3,1c0.2,0.2,0.5,0.3,0.8,0.3c0.6,0,1-0.3,1.4-0.8l1.1,2.1
				c-0.9,0.9-1.9,1.3-3,1.3s-1.9-0.3-2.6-1s-1.1-1.6-1.1-2.8v-5h-1.3v-2.2h1.3V42h3v3.2h2.6v2.2H409.7z"/>
			<path class="st1" d="M415.2,43.9c-0.3-0.3-0.5-0.8-0.5-1.2c0-0.5,0.2-0.9,0.5-1.2s0.8-0.5,1.2-0.5c0.5,0,0.9,0.2,1.2,0.5
				c0.3,0.3,0.5,0.8,0.5,1.2c0,0.5-0.2,0.9-0.5,1.2s-0.8,0.5-1.2,0.5C415.9,44.4,415.5,44.2,415.2,43.9z M417.9,56h-3V45.2h3V56z"/>
			<path class="st1" d="M425.9,53.5c1,0,1.9-0.5,2.7-1.5l1.8,2c-1.4,1.4-2.9,2.2-4.5,2.2s-3-0.5-4.1-1.5s-1.7-2.4-1.7-4s0.6-3,1.7-4
				s2.5-1.6,4-1.6c0.8,0,1.6,0.2,2.3,0.5c0.8,0.3,1.5,0.8,2.1,1.4l-1.6,2c-0.3-0.4-0.8-0.7-1.3-1c-0.5-0.2-1-0.3-1.5-0.3
				c-0.8,0-1.5,0.3-2,0.8c-0.6,0.5-0.8,1.2-0.8,2.1c0,0.9,0.3,1.6,0.8,2.1C424.5,53.2,425.2,53.5,425.9,53.5z"/>
			<path class="st1" d="M440.5,52.7c0,1.1-0.4,1.9-1.2,2.5c-0.8,0.6-1.8,1-3,1c-0.8,0-1.6-0.1-2.5-0.4c-0.9-0.3-1.6-0.7-2.3-1.3
				l1.3-1.9c1.1,0.9,2.3,1.3,3.6,1.3c0.4,0,0.7-0.1,0.9-0.2c0.2-0.2,0.3-0.4,0.3-0.6c0-0.3-0.2-0.5-0.5-0.7s-0.8-0.4-1.4-0.6
				c-0.6-0.2-1-0.3-1.4-0.5c-0.3-0.1-0.7-0.3-1.1-0.6c-0.8-0.5-1.2-1.3-1.2-2.2c0-1,0.4-1.8,1.2-2.4s1.8-0.9,3.1-0.9
				c1.3,0,2.5,0.4,3.8,1.3l-1.1,2c-0.9-0.6-1.9-1-2.8-1s-1.4,0.3-1.4,0.8c0,0.3,0.1,0.5,0.4,0.7s0.8,0.3,1.5,0.6
				c0.7,0.2,1.2,0.4,1.5,0.5s0.6,0.3,1,0.5C440.1,50.8,440.5,51.6,440.5,52.7z"/>
			<path class="st1" d="M108.1,75.8c-1.1,0.9-2.4,1.4-3.9,1.4c-1.5,0-2.7-0.4-3.6-1.1c-0.9-0.8-1.4-1.8-1.4-3.1c0-1.5,1-2.8,2.9-3.9
				c-0.4-0.5-0.8-1-1-1.4s-0.3-0.9-0.3-1.4c0-1.1,0.4-2,1.2-2.6s1.8-0.9,2.9-0.9c1.1,0,2.1,0.3,2.9,0.9c0.8,0.6,1.2,1.4,1.2,2.4
				c0,1.3-1,2.5-2.9,3.6c0.7,0.9,1.3,1.6,1.7,2c0.3-0.6,0.6-1.3,0.8-1.9l2.3,1.7c-0.3,0.8-0.7,1.6-1.1,2.3l2,2l-2,1.9L108.1,75.8z
				 M102.7,74.2c0.4,0.3,0.9,0.5,1.5,0.5c0.6,0,1.3-0.3,2-0.9c-1-1-1.8-2-2.5-2.8c-1,0.6-1.5,1.3-1.5,2.1
				C102.1,73.5,102.3,73.9,102.7,74.2z M105,65.1c-0.3,0-0.6,0.1-0.8,0.3c-0.2,0.2-0.4,0.5-0.4,0.8c0,0.4,0.3,0.9,0.8,1.5
				c1-0.5,1.5-1,1.5-1.5c0-0.4-0.1-0.7-0.4-0.9C105.5,65.2,105.3,65.1,105,65.1z"/>
			<path class="st1" d="M119.2,63h3.1v14h-3.1V63z"/>
			<path class="st1" d="M128.4,71v6h-3V66.2h3v1.2c0.9-0.9,1.9-1.4,3.1-1.4s2.1,0.4,2.9,1.2c0.8,0.8,1.1,1.9,1.1,3.2V77h-3v-6.1
				c0-1.7-0.6-2.5-1.8-2.5c-0.6,0-1.1,0.2-1.6,0.6C128.6,69.5,128.4,70.2,128.4,71z"/>
			<path class="st1" d="M141.6,65.6v0.7h2.6v2.2h-2.6V77h-3v-8.5h-1.3v-2.2h1.3v-0.7c0-1.2,0.4-2.1,1.1-2.8c0.7-0.7,1.6-1,2.7-1
				c1.1,0,2,0.4,2.9,1.2l-1.1,2c-0.4-0.5-0.9-0.8-1.5-0.8c-0.3,0-0.6,0.1-0.8,0.3C141.7,64.9,141.6,65.2,141.6,65.6z"/>
			<path class="st1" d="M156.6,71.6c0,1.6-0.5,2.9-1.6,3.9c-1.1,1.1-2.4,1.6-4.1,1.6c-1.6,0-3-0.5-4.1-1.6s-1.6-2.4-1.6-3.9
				c0-1.6,0.5-2.9,1.6-4s2.4-1.6,4.1-1.6c1.6,0,3,0.5,4.1,1.6C156,68.7,156.6,70.1,156.6,71.6z M148.2,71.6c0,0.9,0.2,1.6,0.8,2.1
				c0.5,0.6,1.1,0.8,1.9,0.8c0.8,0,1.4-0.3,1.9-0.8c0.5-0.6,0.8-1.3,0.8-2.1c0-0.9-0.2-1.6-0.8-2.2c-0.5-0.6-1.1-0.8-1.9-0.8
				c-0.8,0-1.4,0.3-1.9,0.8C148.5,70,148.2,70.7,148.2,71.6z"/>
			<path class="st1" d="M164.5,68.9c-0.9,0-1.6,0.3-2,1c-0.4,0.6-0.7,1.5-0.7,2.5V77h-3V66.2h3v1.4c0.4-0.4,0.9-0.8,1.5-1.1
				c0.6-0.3,1.2-0.5,1.8-0.5v2.8L164.5,68.9L164.5,68.9z"/>
			<path class="st1" d="M176.9,71.2V77h-3v-5.9c0-0.9-0.1-1.5-0.4-1.9c-0.3-0.4-0.7-0.6-1.3-0.6s-1.1,0.2-1.5,0.7
				c-0.4,0.4-0.7,1.1-0.7,1.9V77h-3V66.2h3v1.2c0.8-0.9,1.8-1.4,2.8-1.4c0.7,0,1.3,0.2,1.9,0.6c0.6,0.4,1,0.9,1.2,1.5
				c0.4-0.7,1-1.2,1.7-1.5c0.7-0.4,1.4-0.5,2.1-0.5c1.3,0,2.3,0.4,3.1,1.1c0.8,0.8,1.2,1.8,1.2,3.3V77h-3v-5.9
				c0-1.7-0.6-2.5-1.8-2.5c-0.6,0-1.1,0.2-1.6,0.7C177.1,69.7,176.9,70.4,176.9,71.2z"/>
			<path class="st1" d="M195.8,77H193v-1.3c-0.8,1-1.7,1.5-2.9,1.5c-1.1,0-2.1-0.3-2.9-1c-0.8-0.7-1.2-1.5-1.2-2.6s0.4-1.9,1.2-2.5
				c0.8-0.5,1.9-0.8,3.3-0.8h2.2v-0.1c0-1.1-0.6-1.7-1.8-1.7c-0.5,0-1.1,0.1-1.7,0.3c-0.6,0.2-1.1,0.5-1.5,0.8l-1.3-1.9
				c1.4-1,3-1.5,4.8-1.5c1.3,0,2.4,0.3,3.2,1s1.2,1.7,1.2,3.1V77H195.8z M192.8,72.9v-0.5h-1.9c-1.2,0-1.8,0.4-1.8,1.1
				c0,0.4,0.1,0.7,0.4,0.9c0.3,0.2,0.7,0.3,1.2,0.3s1-0.2,1.4-0.5C192.6,73.9,192.8,73.4,192.8,72.9z"/>
			<path class="st1" d="M202,68.4v4.8c0,0.4,0.1,0.7,0.3,1c0.2,0.2,0.5,0.3,0.8,0.3c0.6,0,1-0.3,1.4-0.8l1.1,2.1
				c-0.9,0.9-1.9,1.3-3,1.3s-1.9-0.3-2.6-1c-0.7-0.7-1.1-1.6-1.1-2.8v-5h-1.3v-2.2h1.3V63h3v3.2h2.6v2.2
				C204.5,68.4,202,68.4,202,68.4z"/>
			<path class="st1" d="M207.5,64.9c-0.3-0.3-0.5-0.8-0.5-1.3c0-0.5,0.2-0.9,0.5-1.2s0.8-0.5,1.2-0.5c0.5,0,0.9,0.2,1.2,0.5
				s0.5,0.8,0.5,1.2c0,0.5-0.2,0.9-0.5,1.3c-0.3,0.3-0.8,0.5-1.2,0.5C208.2,65.4,207.8,65.2,207.5,64.9z M210.2,77h-3V66.2h3V77z"/>
			<path class="st1" d="M223.8,71.6c0,1.6-0.5,2.9-1.6,3.9c-1.1,1.1-2.4,1.6-4.1,1.6c-1.6,0-3-0.5-4.1-1.6s-1.6-2.4-1.6-3.9
				c0-1.6,0.5-2.9,1.6-4s2.4-1.6,4.1-1.6c1.6,0,3,0.5,4.1,1.6S223.8,70.1,223.8,71.6z M215.5,71.6c0,0.9,0.2,1.6,0.8,2.1
				c0.5,0.6,1.1,0.8,1.9,0.8c0.8,0,1.4-0.3,1.9-0.8c0.5-0.6,0.8-1.3,0.8-2.1c0-0.9-0.2-1.6-0.8-2.2c-0.5-0.6-1.1-0.8-1.9-0.8
				c-0.8,0-1.4,0.3-1.9,0.8C215.7,70,215.5,70.7,215.5,71.6z"/>
			<path class="st1" d="M229.1,71v6h-3V66.2h3v1.2c0.9-0.9,1.9-1.4,3.1-1.4c1.2,0,2.1,0.4,2.9,1.2c0.8,0.8,1.1,1.9,1.1,3.2V77h-3
				v-6.1c0-1.7-0.6-2.5-1.8-2.5c-0.6,0-1.1,0.2-1.6,0.6C229.3,69.5,229.1,70.2,229.1,71z"/>
			<path class="st1" d="M250.3,65.7V77h-3.1V65.7h-4V63h11v2.7H250.3z"/>
			<path class="st1" d="M265.6,75.4c-1.2,1.1-2.6,1.7-4.3,1.7c-1.6,0-3-0.5-4.1-1.5s-1.6-2.4-1.6-4.1s0.5-3,1.6-4s2.4-1.5,3.8-1.5
				s2.7,0.4,3.8,1.3c1,0.9,1.6,2.1,1.6,3.7v1.6h-7.8c0.1,0.6,0.4,1.1,0.9,1.4c0.5,0.4,1.1,0.6,1.8,0.6c1.1,0,1.9-0.4,2.6-1.1
				L265.6,75.4z M262.7,69.1c-0.4-0.3-0.9-0.5-1.5-0.5s-1.1,0.2-1.6,0.5c-0.5,0.4-0.8,0.8-0.9,1.5h4.7
				C263.4,69.9,263.1,69.4,262.7,69.1z"/>
			<path class="st1" d="M273.8,74.5c1,0,1.9-0.5,2.7-1.5l1.8,2c-1.4,1.4-2.9,2.2-4.5,2.2s-3-0.5-4.1-1.5s-1.7-2.4-1.7-4s0.6-3,1.7-4
				s2.5-1.6,4-1.6c0.8,0,1.6,0.2,2.4,0.5s1.5,0.8,2.1,1.4l-1.6,2c-0.3-0.4-0.8-0.7-1.3-1c-0.5-0.2-1-0.3-1.5-0.3
				c-0.8,0-1.5,0.3-2,0.8c-0.6,0.5-0.8,1.2-0.8,2.1s0.3,1.6,0.8,2.1C272.4,74.2,273,74.5,273.8,74.5z"/>
			<path class="st1" d="M283.3,71.2V77h-3V62.2h3v5.3c0.9-0.9,1.9-1.4,3.1-1.4c1.1,0,2.1,0.4,2.8,1.2c0.8,0.8,1.2,1.9,1.2,3.2V77h-3
				v-5.9c0-1.7-0.6-2.5-1.8-2.5c-0.6,0-1.1,0.2-1.6,0.7C283.5,69.7,283.3,70.4,283.3,71.2z"/>
			<path class="st1" d="M296.1,71v6h-3V66.2h3v1.2c0.9-0.9,1.9-1.4,3.1-1.4s2.1,0.4,2.9,1.2c0.8,0.8,1.1,1.9,1.1,3.2V77h-3v-6.1
				c0-1.7-0.6-2.5-1.8-2.5c-0.6,0-1.1,0.2-1.6,0.6C296.3,69.5,296.1,70.2,296.1,71z"/>
			<path class="st1" d="M316.6,71.6c0,1.6-0.5,2.9-1.6,3.9c-1.1,1.1-2.4,1.6-4.1,1.6c-1.6,0-3-0.5-4.1-1.6s-1.6-2.4-1.6-3.9
				c0-1.6,0.5-2.9,1.6-4s2.4-1.6,4.1-1.6c1.6,0,3,0.5,4.1,1.6S316.6,70.1,316.6,71.6z M308.2,71.6c0,0.9,0.2,1.6,0.8,2.1
				c0.5,0.6,1.1,0.8,1.9,0.8s1.4-0.3,1.9-0.8c0.5-0.6,0.8-1.3,0.8-2.1c0-0.9-0.2-1.6-0.8-2.2c-0.5-0.6-1.1-0.8-1.9-0.8
				s-1.4,0.3-1.9,0.8C308.5,70,308.2,70.7,308.2,71.6z"/>
			<path class="st1" d="M321.8,77h-3V62.2h3V77z"/>
			<path class="st1" d="M335.4,71.6c0,1.6-0.5,2.9-1.6,3.9c-1.1,1.1-2.4,1.6-4.1,1.6c-1.6,0-3-0.5-4.1-1.6s-1.6-2.4-1.6-3.9
				c0-1.6,0.5-2.9,1.6-4s2.4-1.6,4.1-1.6c1.6,0,3,0.5,4.1,1.6S335.4,70.1,335.4,71.6z M327.1,71.6c0,0.9,0.2,1.6,0.8,2.1
				c0.5,0.6,1.1,0.8,1.9,0.8s1.4-0.3,1.9-0.8c0.5-0.6,0.8-1.3,0.8-2.1c0-0.9-0.2-1.6-0.8-2.2c-0.5-0.6-1.1-0.8-1.9-0.8
				s-1.4,0.3-1.9,0.8C327.3,70,327.1,70.7,327.1,71.6z"/>
			<path class="st1" d="M345.6,75.2c-0.9,1.1-2.1,1.6-3.5,1.6s-2.6-0.5-3.6-1.4c-1-1-1.5-2.2-1.5-3.8c0-1.6,0.5-2.9,1.5-3.9
				s2.1-1.5,3.4-1.5s2.3,0.5,3.2,1.6v-1.4h3v9.4c0,1-0.2,1.8-0.5,2.6c-0.3,0.7-0.8,1.3-1.3,1.8c-1.1,0.9-2.4,1.3-3.9,1.3
				c-0.8,0-1.6-0.1-2.5-0.4c-0.8-0.3-1.6-0.6-2.2-1.1l1.2-2.3c1,0.7,2,1.1,3.1,1.1s2-0.3,2.6-0.8C345.3,77.2,345.6,76.4,345.6,75.2z
				 M345.2,71.4c0-0.9-0.2-1.5-0.7-2s-1.1-0.7-1.8-0.7c-0.7,0-1.3,0.2-1.8,0.7s-0.8,1.2-0.8,2c0,0.9,0.2,1.5,0.8,2.1
				c0.5,0.5,1.1,0.8,1.8,0.8c0.7,0,1.3-0.3,1.8-0.8C344.9,72.9,345.2,72.2,345.2,71.4z"/>
			<path class="st1" d="M352.8,81.2c-1.1,0-2-0.4-3-1.3l1.4-2.2c0.5,0.5,1,0.7,1.6,0.7c0.3,0,0.5-0.1,0.7-0.4s0.3-0.6,0.3-0.9
				s-1.4-4-4.2-11h3.2l2.6,6.7l2.6-6.7h3.2l-5,12.7c-0.3,0.7-0.8,1.3-1.4,1.7C354.3,81,353.6,81.2,352.8,81.2z"/>
		</g>
	</g>
	<g>
		<g>
			<path class="st1" d="M75,50L60,23H5.8C2.6,23,0,25.6,0,28.8v42.4C0,74.4,2.6,77,5.8,77H60L75,50z"/>
			<path class="st0" d="M73.5,25.8c-1.1-1.7-3-2.8-5-2.8H64l15.2,27L64,77h4.5c2.1,0,4-1.1,5-2.8L87,50L73.5,25.8z"/>
		</g>
		<g>
			<rect x="32" y="38" class="st2" width="4" height="24"/>
			<polygon class="st2" points="24,38 24,55.6 13,38 9,38 9,62 13,62 13,44.4 24,62 28,62 28,38 			"/>
			<polygon class="st2" points="55,38 55,48 44,48 44,38 40,38 40,62 44,62 44,52 55,52 55,62 59,62 59,38 			"/>
		</g>
	</g>
</g>
</svg>
