<?xml version="1.0" encoding="utf-8"?>
<!-- Generator: Adobe Illustrator 24.2.0, SVG Export Plug-In . SVG Version: 6.00 Build 0)  -->
<svg version="1.1" id="Layer_1" xmlns="http://www.w3.org/2000/svg" xmlns:xlink="http://www.w3.org/1999/xlink" x="0px" y="0px"
	 viewBox="0 0 566.03 100" style="enable-background:new 0 0 566.03 100;" xml:space="preserve">
<style type="text/css">
	.st0{fill:#606061;}
	.st1{fill:#BA1F40;}
	.st2{fill:#FFFFFF;}
	.st3{fill:#BB0E3D;}
	.st4{fill:#606060;}
</style>
<g>
	<g>
		<path class="st0" d="M97.99,50l-15-27H28.76c-3.19,0-5.77,2.59-5.77,5.79v42.43c0,3.2,2.58,5.79,5.77,5.79h54.23L97.99,50z"/>
		<path class="st1" d="M96.5,25.81C95.44,24.07,93.54,23,91.48,23H87l15.2,27l-15.2,27h4.49c2.06,0,3.96-1.07,5.02-2.81L110,50
			L96.5,25.81z"/>
	</g>
	<g>
		<rect x="54.99" y="38" class="st2" width="4" height="24"/>
		<polygon class="st2" points="46.99,38 46.99,55.6 35.99,38 31.99,38 31.99,62 35.99,62 35.99,44.4 46.99,62 50.99,62 50.99,38 		
			"/>
		<polygon class="st2" points="77.99,38 77.99,48 66.99,48 66.99,38 62.99,38 62.99,62 66.99,62 66.99,52 77.99,52 77.99,62 
			81.99,62 81.99,38 		"/>
	</g>
</g>
<g>
	<g>
		<path class="st3" d="M130.85,31h2.5v11.18h-2.5l-5.33-7.01v7.01h-2.5V31h2.34l5.49,7.2V31z"/>
		<path class="st3" d="M144.06,42.18l-1.04-2.42h-4.69l-1.04,2.42h-2.66L139.47,31h2.42l4.83,11.18H144.06z M140.69,34.33
			l-1.41,3.25h2.8L140.69,34.33z"/>
		<path class="st3" d="M151.94,33.16v9.02h-2.5v-9.02h-3.17V31h8.83v2.16H151.94z"/>
		<path class="st3" d="M156.93,31h2.5v11.18h-2.5V31z"/>
		<path class="st3" d="M171.58,40.64c-1.13,1.1-2.52,1.66-4.18,1.66s-3.05-0.55-4.18-1.66c-1.13-1.1-1.7-2.48-1.7-4.12
			c0-1.64,0.57-3.02,1.7-4.12c1.13-1.1,2.52-1.66,4.18-1.66s3.04,0.55,4.18,1.66c1.13,1.1,1.7,2.48,1.7,4.12
			C173.28,38.16,172.71,39.54,171.58,40.64z M170.74,36.53c0-1-0.32-1.85-0.96-2.55c-0.64-0.7-1.43-1.06-2.36-1.06
			s-1.72,0.35-2.36,1.06c-0.64,0.7-0.96,1.55-0.96,2.55c0,1,0.32,1.85,0.96,2.54c0.64,0.7,1.43,1.05,2.36,1.05s1.72-0.35,2.36-1.05
			C170.42,38.37,170.74,37.52,170.74,36.53z"/>
		<path class="st3" d="M183.22,31h2.5v11.18h-2.5l-5.33-7.01v7.01h-2.5V31h2.34l5.49,7.2V31z"/>
		<path class="st3" d="M196.43,42.18l-1.04-2.42h-4.69l-1.04,2.42h-2.66L191.84,31h2.42l4.83,11.18H196.43z M193.06,34.33
			l-1.41,3.25h2.8L193.06,34.33z"/>
		<path class="st3" d="M200.38,42.18V31h2.5v8.96h4.77v2.22H200.38z"/>
		<path class="st3" d="M218.83,39.98c1.23,0,2.23-0.49,3.01-1.46l1.6,1.65c-1.27,1.43-2.77,2.14-4.49,2.14s-3.14-0.54-4.26-1.63
			c-1.11-1.09-1.67-2.46-1.67-4.12c0-1.66,0.57-3.04,1.7-4.15c1.14-1.11,2.53-1.66,4.17-1.66c1.83,0,3.37,0.7,4.61,2.1l-1.55,1.76
			c-0.79-0.98-1.77-1.47-2.94-1.47c-0.94,0-1.74,0.31-2.41,0.92c-0.67,0.61-1,1.44-1,2.48s0.31,1.88,0.94,2.5
			C217.17,39.66,217.94,39.98,218.83,39.98z"/>
		<path class="st3" d="M233.3,42.18l-1.04-2.42h-4.69l-1.04,2.42h-2.66L228.7,31h2.42l4.83,11.18H233.3z M229.92,34.33l-1.41,3.25
			h2.8L229.92,34.33z"/>
		<path class="st3" d="M245.07,31h2.5v11.18h-2.5l-5.33-7.01v7.01h-2.5V31h2.34l5.49,7.2V31z"/>
		<path class="st3" d="M255.46,39.98c1.23,0,2.23-0.49,3.01-1.46l1.6,1.65c-1.27,1.43-2.77,2.14-4.49,2.14s-3.14-0.54-4.26-1.63
			c-1.12-1.09-1.67-2.46-1.67-4.12c0-1.66,0.57-3.04,1.7-4.15c1.14-1.11,2.52-1.66,4.17-1.66c1.83,0,3.37,0.7,4.61,2.1l-1.55,1.76
			c-0.79-0.98-1.77-1.47-2.94-1.47c-0.94,0-1.74,0.31-2.41,0.92c-0.67,0.61-1,1.44-1,2.48s0.32,1.88,0.94,2.5
			C253.8,39.66,254.56,39.98,255.46,39.98z"/>
		<path class="st3" d="M270.09,31v2.22h-5.57v2.3h5.01v2.13h-5.01v2.32h5.74v2.21h-8.24V31H270.09z"/>
		<path class="st3" d="M281.57,34.71c0,1.79-0.71,2.95-2.13,3.47l2.83,4h-3.07l-2.48-3.57h-1.73v3.57h-2.5V31h4.24
			c1.74,0,2.98,0.29,3.72,0.88S281.57,33.41,281.57,34.71z M278.56,36.04c0.31-0.28,0.46-0.72,0.46-1.32s-0.16-1.02-0.48-1.24
			s-0.88-0.34-1.68-0.34h-1.87v3.31h1.82C277.67,36.46,278.25,36.32,278.56,36.04z"/>
		<path class="st3" d="M288.35,31h2.5v11.18h-2.5V31z"/>
		<path class="st3" d="M301.42,31h2.5v11.18h-2.5l-5.33-7.01v7.01h-2.5V31h2.34l5.49,7.2V31z"/>
		<path class="st3" d="M309.29,33.23c-0.24,0.2-0.36,0.46-0.36,0.78s0.15,0.58,0.44,0.78c0.29,0.19,0.97,0.42,2.03,0.68
			s1.89,0.65,2.47,1.18c0.59,0.52,0.88,1.29,0.88,2.29c0,1-0.38,1.82-1.13,2.44s-1.74,0.94-2.97,0.94c-1.77,0-3.37-0.66-4.78-1.97
			l1.49-1.82c1.21,1.06,2.32,1.58,3.34,1.58c0.46,0,0.82-0.1,1.08-0.3c0.26-0.2,0.39-0.46,0.39-0.8s-0.14-0.6-0.42-0.8
			s-0.83-0.4-1.65-0.6c-1.3-0.31-2.25-0.71-2.86-1.21s-0.9-1.27-0.9-2.34s0.38-1.88,1.14-2.46c0.76-0.58,1.71-0.86,2.86-0.86
			c0.75,0,1.49,0.13,2.24,0.38c0.75,0.26,1.4,0.62,1.95,1.09l-1.26,1.82c-0.97-0.74-1.97-1.1-3.01-1.1
			C309.85,32.94,309.53,33.03,309.29,33.23z"/>
		<path class="st3" d="M321.52,33.16v9.02h-2.5v-9.02h-3.17V31h8.83v2.16H321.52z"/>
		<path class="st3" d="M326.51,31h2.5v11.18h-2.5V31z"/>
		<path class="st3" d="M336.49,33.16v9.02H334v-9.02h-3.17V31h8.83v2.16H336.49z"/>
		<path class="st3" d="M344.45,39.3c0.42,0.52,0.98,0.78,1.68,0.78s1.26-0.26,1.67-0.78c0.41-0.52,0.62-1.22,0.62-2.12V31h2.5v6.26
			c0,1.62-0.45,2.87-1.34,3.74c-0.9,0.87-2.04,1.3-3.44,1.3c-1.4,0-2.55-0.44-3.45-1.31c-0.9-0.87-1.35-2.12-1.35-3.73V31h2.5v6.18
			C343.82,38.07,344.03,38.78,344.45,39.3z"/>
		<path class="st3" d="M358.24,33.16v9.02h-2.5v-9.02h-3.17V31h8.83v2.16H358.24z"/>
		<path class="st3" d="M371.29,31v2.22h-5.57v2.3h5.01v2.13h-5.01v2.32h5.74v2.21h-8.24V31H371.29z"/>
	</g>
</g>
<g>
	<path class="st4" d="M125.73,68.22c-1.21-0.65-2.16-1.55-2.86-2.71s-1.04-2.46-1.04-3.92s0.35-2.76,1.04-3.92
		c0.69-1.15,1.64-2.06,2.86-2.71c1.21-0.65,2.57-0.98,4.08-0.98c1.27,0,2.43,0.22,3.46,0.67c1.03,0.45,1.89,1.09,2.59,1.93
		l-2.18,2.02c-0.99-1.15-2.23-1.72-3.7-1.72c-0.91,0-1.72,0.2-2.44,0.6c-0.71,0.4-1.27,0.96-1.67,1.67c-0.4,0.71-0.6,1.53-0.6,2.44
		s0.2,1.72,0.6,2.44c0.4,0.71,0.96,1.27,1.67,1.67c0.71,0.4,1.53,0.6,2.44,0.6c1.47,0,2.7-0.58,3.7-1.74l2.18,2.02
		c-0.7,0.85-1.57,1.5-2.6,1.95s-2.19,0.67-3.46,0.67C128.29,69.2,126.94,68.87,125.73,68.22z"/>
	<path class="st4" d="M148.52,64.22h-8.55c0.15,0.7,0.52,1.25,1.09,1.66c0.57,0.41,1.29,0.61,2.14,0.61c0.59,0,1.11-0.09,1.56-0.26
		c0.46-0.17,0.88-0.45,1.27-0.83l1.74,1.89c-1.06,1.22-2.62,1.83-4.66,1.83c-1.27,0-2.4-0.25-3.38-0.75
		c-0.98-0.5-1.74-1.19-2.27-2.07c-0.53-0.88-0.8-1.88-0.8-3c0-1.11,0.26-2.1,0.79-2.99c0.52-0.89,1.25-1.58,2.16-2.08
		c0.92-0.5,1.94-0.75,3.08-0.75c1.11,0,2.11,0.24,3,0.71c0.9,0.48,1.6,1.16,2.11,2.05s0.77,1.92,0.77,3.1
		C148.59,63.38,148.57,63.68,148.52,64.22z M140.86,60.59c-0.5,0.42-0.81,0.99-0.92,1.72h5.57c-0.11-0.71-0.42-1.28-0.92-1.71
		c-0.5-0.43-1.12-0.64-1.85-0.64C141.99,59.96,141.36,60.17,140.86,60.59z"/>
	<path class="st4" d="M161.03,58.74c0.86,0.84,1.29,2.09,1.29,3.74v6.47h-3.28v-5.96c0-0.9-0.2-1.56-0.59-2.01
		c-0.39-0.44-0.96-0.66-1.7-0.66c-0.83,0-1.48,0.26-1.97,0.77c-0.49,0.51-0.74,1.27-0.74,2.28v5.59h-3.28v-11.3h3.13v1.32
		c0.43-0.48,0.97-0.84,1.62-1.1s1.35-0.39,2.12-0.39C159.04,57.48,160.17,57.9,161.03,58.74z"/>
	<path class="st4" d="M172.57,68.4c-0.32,0.24-0.72,0.42-1.19,0.54c-0.47,0.12-0.96,0.18-1.48,0.18c-1.34,0-2.38-0.34-3.12-1.03
		c-0.74-0.69-1.1-1.69-1.1-3.02v-4.64h-1.74V57.9h1.74v-2.75h3.28v2.75h2.81v2.52h-2.81v4.6c0,0.48,0.12,0.84,0.37,1.1
		c0.24,0.26,0.59,0.39,1.04,0.39c0.52,0,0.96-0.14,1.32-0.42L172.57,68.4z"/>
	<path class="st4" d="M185.06,64.22h-8.55c0.15,0.7,0.52,1.25,1.09,1.66c0.57,0.41,1.29,0.61,2.14,0.61c0.59,0,1.11-0.09,1.56-0.26
		c0.46-0.17,0.88-0.45,1.27-0.83l1.74,1.89c-1.06,1.22-2.62,1.83-4.66,1.83c-1.27,0-2.4-0.25-3.38-0.75
		c-0.98-0.5-1.74-1.19-2.27-2.07c-0.53-0.88-0.8-1.88-0.8-3c0-1.11,0.26-2.1,0.79-2.99c0.52-0.89,1.25-1.58,2.16-2.08
		c0.92-0.5,1.94-0.75,3.08-0.75c1.11,0,2.11,0.24,3,0.71c0.9,0.48,1.6,1.16,2.11,2.05s0.77,1.92,0.77,3.1
		C185.13,63.38,185.11,63.68,185.06,64.22z M177.4,60.59c-0.5,0.42-0.81,0.99-0.92,1.72h5.57c-0.11-0.71-0.42-1.28-0.92-1.71
		c-0.5-0.43-1.12-0.64-1.85-0.64C178.53,59.96,177.9,60.17,177.4,60.59z"/>
	<path class="st4" d="M192.03,57.9c0.67-0.28,1.43-0.42,2.3-0.42v3.02c-0.36-0.03-0.61-0.04-0.74-0.04c-0.94,0-1.67,0.26-2.21,0.79
		s-0.8,1.31-0.8,2.36v5.33h-3.28v-11.3h3.13v1.49C190.83,58.59,191.36,58.18,192.03,57.9z"/>
	<path class="st4" d="M205.9,57.9h2.9v2.52h-2.81v8.53h-3.28v-8.53h-1.74V57.9h1.74v-0.5c0-1.29,0.38-2.31,1.14-3.07
		c0.76-0.76,1.84-1.13,3.22-1.13c0.49,0,0.96,0.05,1.4,0.16c0.44,0.1,0.81,0.25,1.1,0.45l-0.86,2.37c-0.38-0.27-0.82-0.4-1.32-0.4
		c-0.99,0-1.49,0.55-1.49,1.64V57.9z"/>
	<path class="st4" d="M212.46,68.37c-0.95-0.5-1.68-1.19-2.22-2.07c-0.53-0.88-0.8-1.88-0.8-3c0-1.12,0.27-2.12,0.8-3
		c0.53-0.88,1.27-1.57,2.22-2.07c0.95-0.5,2.01-0.75,3.2-0.75c1.19,0,2.25,0.25,3.19,0.75c0.94,0.5,1.67,1.19,2.21,2.07
		c0.53,0.88,0.8,1.88,0.8,3c0,1.12-0.27,2.12-0.8,3c-0.53,0.88-1.27,1.57-2.21,2.07c-0.94,0.5-2,0.75-3.19,0.75
		C214.47,69.12,213.4,68.87,212.46,68.37z M217.73,65.58c0.54-0.57,0.81-1.33,0.81-2.28c0-0.95-0.27-1.71-0.81-2.28
		c-0.54-0.57-1.23-0.85-2.07-0.85s-1.53,0.28-2.08,0.85c-0.55,0.57-0.82,1.33-0.82,2.28c0,0.95,0.27,1.71,0.82,2.28
		c0.55,0.57,1.24,0.85,2.08,0.85S217.19,66.14,217.73,65.58z"/>
	<path class="st4" d="M228.75,57.9c0.67-0.28,1.43-0.42,2.3-0.42v3.02c-0.36-0.03-0.61-0.04-0.74-0.04c-0.94,0-1.67,0.26-2.21,0.79
		s-0.8,1.31-0.8,2.36v5.33h-3.28v-11.3h3.13v1.49C227.56,58.59,228.09,58.18,228.75,57.9z"/>
	<path class="st4" d="M242.24,68.22c-1.21-0.65-2.16-1.55-2.86-2.71s-1.04-2.46-1.04-3.92s0.35-2.76,1.04-3.92
		c0.69-1.15,1.64-2.06,2.86-2.71c1.21-0.65,2.57-0.98,4.08-0.98c1.27,0,2.43,0.22,3.46,0.67c1.03,0.45,1.89,1.09,2.59,1.93
		l-2.18,2.02c-0.99-1.15-2.23-1.72-3.7-1.72c-0.91,0-1.72,0.2-2.44,0.6c-0.71,0.4-1.27,0.96-1.67,1.67c-0.4,0.71-0.6,1.53-0.6,2.44
		s0.2,1.72,0.6,2.44c0.4,0.71,0.96,1.27,1.67,1.67c0.71,0.4,1.53,0.6,2.44,0.6c1.47,0,2.7-0.58,3.7-1.74l2.18,2.02
		c-0.7,0.85-1.57,1.5-2.6,1.95s-2.19,0.67-3.46,0.67C244.8,69.2,243.45,68.87,242.24,68.22z"/>
	<path class="st4" d="M262.93,58.73c0.94,0.83,1.41,2.09,1.41,3.77v6.45h-3.07v-1.41c-0.62,1.05-1.76,1.58-3.44,1.58
		c-0.87,0-1.62-0.15-2.26-0.44c-0.64-0.29-1.12-0.7-1.46-1.22c-0.34-0.52-0.5-1.11-0.5-1.76c0-1.05,0.4-1.88,1.19-2.48
		c0.79-0.6,2.01-0.9,3.66-0.9h2.6c0-0.71-0.22-1.26-0.65-1.65c-0.43-0.38-1.08-0.58-1.95-0.58c-0.6,0-1.19,0.09-1.77,0.28
		c-0.58,0.19-1.07,0.44-1.48,0.77l-1.18-2.29c0.62-0.43,1.35-0.77,2.21-1.01c0.86-0.24,1.75-0.36,2.66-0.36
		C260.65,57.48,261.99,57.9,262.93,58.73z M260.14,66.52c0.43-0.26,0.74-0.64,0.92-1.14v-1.15h-2.25c-1.34,0-2.02,0.44-2.02,1.32
		c0,0.42,0.17,0.75,0.49,1c0.33,0.25,0.78,0.37,1.35,0.37C259.21,66.91,259.7,66.78,260.14,66.52z"/>
	<path class="st4" d="M277.56,58.74c0.86,0.84,1.29,2.09,1.29,3.74v6.47h-3.28v-5.96c0-0.9-0.2-1.56-0.59-2.01
		c-0.39-0.44-0.96-0.66-1.7-0.66c-0.83,0-1.48,0.26-1.97,0.77c-0.49,0.51-0.74,1.27-0.74,2.28v5.59h-3.28v-11.3h3.13v1.32
		c0.43-0.48,0.97-0.84,1.62-1.1s1.35-0.39,2.12-0.39C275.56,57.48,276.7,57.9,277.56,58.74z"/>
	<path class="st4" d="M284.15,68.37c-0.96-0.5-1.71-1.19-2.25-2.07c-0.54-0.88-0.81-1.88-0.81-3c0-1.12,0.27-2.12,0.81-3
		c0.54-0.88,1.29-1.57,2.25-2.07c0.96-0.5,2.04-0.75,3.24-0.75c1.19,0,2.23,0.25,3.12,0.75c0.89,0.5,1.54,1.21,1.94,2.13l-2.54,1.37
		c-0.59-1.04-1.44-1.55-2.54-1.55c-0.85,0-1.56,0.28-2.12,0.84c-0.56,0.56-0.84,1.32-0.84,2.29c0,0.97,0.28,1.73,0.84,2.29
		c0.56,0.56,1.27,0.84,2.12,0.84c1.12,0,1.97-0.52,2.54-1.55l2.54,1.39c-0.41,0.9-1.05,1.6-1.94,2.1c-0.89,0.5-1.93,0.76-3.12,0.76
		C286.19,69.12,285.11,68.87,284.15,68.37z"/>
	<path class="st4" d="M305.2,64.22h-8.55c0.15,0.7,0.52,1.25,1.09,1.66c0.57,0.41,1.29,0.61,2.14,0.61c0.59,0,1.11-0.09,1.56-0.26
		c0.46-0.17,0.88-0.45,1.27-0.83l1.74,1.89c-1.06,1.22-2.62,1.83-4.66,1.83c-1.27,0-2.4-0.25-3.38-0.75
		c-0.98-0.5-1.74-1.19-2.27-2.07c-0.53-0.88-0.8-1.88-0.8-3c0-1.11,0.26-2.1,0.79-2.99c0.52-0.89,1.25-1.58,2.16-2.08
		c0.92-0.5,1.94-0.75,3.08-0.75c1.11,0,2.11,0.24,3,0.71c0.9,0.48,1.6,1.16,2.11,2.05s0.77,1.92,0.77,3.1
		C305.27,63.38,305.24,63.68,305.2,64.22z M297.54,60.59c-0.5,0.42-0.81,0.99-0.92,1.72h5.57c-0.11-0.71-0.42-1.28-0.92-1.71
		c-0.5-0.43-1.12-0.64-1.85-0.64C298.66,59.96,298.04,60.17,297.54,60.59z"/>
	<path class="st4" d="M312.16,57.9c0.67-0.28,1.43-0.42,2.3-0.42v3.02c-0.36-0.03-0.61-0.04-0.74-0.04c-0.94,0-1.67,0.26-2.21,0.79
		s-0.8,1.31-0.8,2.36v5.33h-3.28v-11.3h3.13v1.49C310.97,58.59,311.5,58.18,312.16,57.9z"/>
	<path class="st4" d="M322.67,54.25h6.68c1.6,0,3.01,0.3,4.23,0.91c1.22,0.61,2.18,1.47,2.86,2.57c0.68,1.11,1.02,2.39,1.02,3.86
		s-0.34,2.76-1.02,3.86c-0.68,1.11-1.63,1.96-2.86,2.57c-1.22,0.61-2.64,0.91-4.23,0.91h-6.68V54.25z M329.18,66.15
		c1.47,0,2.64-0.41,3.52-1.23s1.31-1.93,1.31-3.33s-0.44-2.51-1.31-3.33c-0.88-0.82-2.05-1.23-3.52-1.23h-3.11v9.11H329.18z"/>
	<path class="st4" d="M348.38,58.73c0.94,0.83,1.41,2.09,1.41,3.77v6.45h-3.07v-1.41c-0.62,1.05-1.76,1.58-3.44,1.58
		c-0.87,0-1.62-0.15-2.26-0.44c-0.64-0.29-1.12-0.7-1.46-1.22c-0.34-0.52-0.5-1.11-0.5-1.76c0-1.05,0.4-1.88,1.19-2.48
		c0.79-0.6,2.01-0.9,3.66-0.9h2.6c0-0.71-0.22-1.26-0.65-1.65c-0.43-0.38-1.08-0.58-1.95-0.58c-0.6,0-1.19,0.09-1.77,0.28
		c-0.58,0.19-1.07,0.44-1.48,0.77l-1.18-2.29c0.62-0.43,1.35-0.77,2.21-1.01c0.86-0.24,1.75-0.36,2.66-0.36
		C346.1,57.48,347.44,57.9,348.38,58.73z M345.58,66.52c0.43-0.26,0.74-0.64,0.92-1.14v-1.15h-2.25c-1.34,0-2.02,0.44-2.02,1.32
		c0,0.42,0.17,0.75,0.49,1c0.33,0.25,0.78,0.37,1.35,0.37C344.65,66.91,345.15,66.78,345.58,66.52z"/>
	<path class="st4" d="M360.03,68.4c-0.32,0.24-0.72,0.42-1.19,0.54c-0.47,0.12-0.96,0.18-1.48,0.18c-1.34,0-2.38-0.34-3.12-1.03
		c-0.74-0.69-1.1-1.69-1.1-3.02v-4.64h-1.74V57.9h1.74v-2.75h3.28v2.75h2.81v2.52h-2.81v4.6c0,0.48,0.12,0.84,0.37,1.1
		c0.24,0.26,0.59,0.39,1.04,0.39c0.52,0,0.96-0.14,1.32-0.42L360.03,68.4z"/>
	<path class="st4" d="M370.47,58.73c0.94,0.83,1.41,2.09,1.41,3.77v6.45h-3.07v-1.41c-0.62,1.05-1.76,1.58-3.44,1.58
		c-0.87,0-1.62-0.15-2.26-0.44c-0.64-0.29-1.12-0.7-1.46-1.22c-0.34-0.52-0.5-1.11-0.5-1.76c0-1.05,0.4-1.88,1.19-2.48
		c0.79-0.6,2.01-0.9,3.66-0.9h2.6c0-0.71-0.22-1.26-0.65-1.65c-0.43-0.38-1.08-0.58-1.95-0.58c-0.6,0-1.19,0.09-1.77,0.28
		c-0.58,0.19-1.07,0.44-1.48,0.77l-1.18-2.29c0.62-0.43,1.35-0.77,2.21-1.01c0.86-0.24,1.75-0.36,2.66-0.36
		C368.19,57.48,369.53,57.9,370.47,58.73z M367.68,66.52c0.43-0.26,0.74-0.64,0.92-1.14v-1.15h-2.25c-1.34,0-2.02,0.44-2.02,1.32
		c0,0.42,0.17,0.75,0.49,1c0.33,0.25,0.78,0.37,1.35,0.37C366.75,66.91,367.24,66.78,367.68,66.52z"/>
	<path class="st4" d="M394.49,54.25v14.7h-3.4v-6.03h-6.68v6.03h-3.4v-14.7h3.4v5.8h6.68v-5.8H394.49z"/>
	<path class="st4" d="M406.34,58.73c0.94,0.83,1.41,2.09,1.41,3.77v6.45h-3.07v-1.41c-0.62,1.05-1.76,1.58-3.44,1.58
		c-0.87,0-1.62-0.15-2.26-0.44c-0.64-0.29-1.12-0.7-1.46-1.22c-0.34-0.52-0.5-1.11-0.5-1.76c0-1.05,0.4-1.88,1.19-2.48
		c0.79-0.6,2.01-0.9,3.66-0.9h2.6c0-0.71-0.22-1.26-0.65-1.65c-0.43-0.38-1.08-0.58-1.95-0.58c-0.6,0-1.19,0.09-1.77,0.28
		c-0.58,0.19-1.07,0.44-1.48,0.77l-1.18-2.29c0.62-0.43,1.35-0.77,2.21-1.01c0.86-0.24,1.75-0.36,2.66-0.36
		C404.06,57.48,405.4,57.9,406.34,58.73z M403.54,66.52c0.43-0.26,0.74-0.64,0.92-1.14v-1.15h-2.25c-1.34,0-2.02,0.44-2.02,1.32
		c0,0.42,0.17,0.75,0.49,1c0.33,0.25,0.78,0.37,1.35,0.37C402.61,66.91,403.11,66.78,403.54,66.52z"/>
	<path class="st4" d="M415.42,57.9c0.67-0.28,1.43-0.42,2.3-0.42v3.02c-0.36-0.03-0.61-0.04-0.74-0.04c-0.94,0-1.67,0.26-2.21,0.79
		s-0.8,1.31-0.8,2.36v5.33h-3.28v-11.3h3.13v1.49C414.23,58.59,414.75,58.18,415.42,57.9z"/>
	<path class="st4" d="M437.51,58.73c0.83,0.83,1.25,2.08,1.25,3.75v6.47h-3.28v-5.96c0-0.9-0.19-1.56-0.56-2.01
		c-0.37-0.44-0.9-0.66-1.59-0.66c-0.77,0-1.38,0.25-1.83,0.75c-0.45,0.5-0.67,1.24-0.67,2.22v5.67h-3.28v-5.96
		c0-1.78-0.71-2.67-2.14-2.67c-0.76,0-1.36,0.25-1.81,0.75c-0.45,0.5-0.67,1.24-0.67,2.22v5.67h-3.28v-11.3h3.13v1.3
		c0.42-0.48,0.93-0.84,1.54-1.09s1.28-0.38,2.01-0.38c0.8,0,1.52,0.16,2.16,0.47c0.64,0.31,1.16,0.77,1.55,1.38
		c0.46-0.59,1.05-1.04,1.75-1.36s1.48-0.48,2.32-0.48C435.55,57.48,436.68,57.9,437.51,58.73z"/>
	<path class="st4" d="M444,68.37c-0.95-0.5-1.68-1.19-2.22-2.07c-0.53-0.88-0.8-1.88-0.8-3c0-1.12,0.27-2.12,0.8-3
		c0.53-0.88,1.27-1.57,2.22-2.07c0.95-0.5,2.01-0.75,3.2-0.75c1.19,0,2.25,0.25,3.19,0.75c0.94,0.5,1.67,1.19,2.21,2.07
		c0.53,0.88,0.8,1.88,0.8,3c0,1.12-0.27,2.12-0.8,3c-0.53,0.88-1.27,1.57-2.21,2.07c-0.94,0.5-2,0.75-3.19,0.75
		C446.01,69.12,444.95,68.87,444,68.37z M449.27,65.58c0.54-0.57,0.81-1.33,0.81-2.28c0-0.95-0.27-1.71-0.81-2.28
		c-0.54-0.57-1.23-0.85-2.07-0.85s-1.53,0.28-2.08,0.85c-0.55,0.57-0.82,1.33-0.82,2.28c0,0.95,0.27,1.71,0.82,2.28
		c0.55,0.57,1.24,0.85,2.08,0.85S448.73,66.14,449.27,65.58z"/>
	<path class="st4" d="M465.84,58.74c0.86,0.84,1.29,2.09,1.29,3.74v6.47h-3.28v-5.96c0-0.9-0.2-1.56-0.59-2.01
		c-0.39-0.44-0.96-0.66-1.7-0.66c-0.83,0-1.48,0.26-1.97,0.77c-0.49,0.51-0.74,1.27-0.74,2.28v5.59h-3.28v-11.3h3.13v1.32
		c0.43-0.48,0.97-0.84,1.62-1.1s1.35-0.39,2.12-0.39C463.85,57.48,464.98,57.9,465.84,58.74z"/>
	<path class="st4" d="M470.26,55.55c-0.38-0.35-0.57-0.78-0.57-1.3c0-0.52,0.19-0.95,0.57-1.3c0.38-0.35,0.87-0.52,1.47-0.52
		c0.6,0,1.09,0.17,1.47,0.5s0.57,0.76,0.57,1.26c0,0.55-0.19,1-0.57,1.35s-0.87,0.54-1.47,0.54
		C471.13,56.07,470.64,55.9,470.26,55.55z M470.09,57.65h3.28v11.3h-3.28V57.65z"/>
	<path class="st4" d="M485.72,66.43v2.52h-10.08v-1.97l5.75-6.8h-5.61v-2.52h9.74v1.97l-5.75,6.8H485.72z"/>
	<path class="st4" d="M496.41,58.73c0.94,0.83,1.41,2.09,1.41,3.77v6.45h-3.07v-1.41c-0.62,1.05-1.76,1.58-3.44,1.58
		c-0.87,0-1.62-0.15-2.26-0.44c-0.64-0.29-1.12-0.7-1.46-1.22c-0.34-0.52-0.5-1.11-0.5-1.76c0-1.05,0.4-1.88,1.19-2.48
		c0.79-0.6,2.01-0.9,3.66-0.9h2.6c0-0.71-0.22-1.26-0.65-1.65c-0.43-0.38-1.08-0.58-1.95-0.58c-0.6,0-1.19,0.09-1.77,0.28
		c-0.58,0.19-1.07,0.44-1.48,0.77l-1.18-2.29c0.62-0.43,1.35-0.77,2.21-1.01c0.86-0.24,1.75-0.36,2.66-0.36
		C494.12,57.48,495.47,57.9,496.41,58.73z M493.61,66.52c0.43-0.26,0.74-0.64,0.92-1.14v-1.15h-2.25c-1.34,0-2.02,0.44-2.02,1.32
		c0,0.42,0.17,0.75,0.49,1c0.33,0.25,0.78,0.37,1.35,0.37C492.68,66.91,493.18,66.78,493.61,66.52z"/>
	<path class="st4" d="M508.06,68.4c-0.32,0.24-0.72,0.42-1.19,0.54c-0.47,0.12-0.96,0.18-1.48,0.18c-1.34,0-2.38-0.34-3.12-1.03
		c-0.74-0.69-1.1-1.69-1.1-3.02v-4.64h-1.74V57.9h1.74v-2.75h3.28v2.75h2.81v2.52h-2.81v4.6c0,0.48,0.12,0.84,0.37,1.1
		c0.24,0.26,0.59,0.39,1.04,0.39c0.52,0,0.96-0.14,1.32-0.42L508.06,68.4z"/>
	<path class="st4" d="M510.08,55.55c-0.38-0.35-0.57-0.78-0.57-1.3c0-0.52,0.19-0.95,0.57-1.3c0.38-0.35,0.87-0.52,1.47-0.52
		c0.6,0,1.09,0.17,1.47,0.5s0.57,0.76,0.57,1.26c0,0.55-0.19,1-0.57,1.35s-0.87,0.54-1.47,0.54
		C510.94,56.07,510.45,55.9,510.08,55.55z M509.91,57.65h3.28v11.3h-3.28V57.65z"/>
	<path class="st4" d="M518.4,68.37c-0.95-0.5-1.68-1.19-2.22-2.07c-0.53-0.88-0.8-1.88-0.8-3c0-1.12,0.27-2.12,0.8-3
		c0.53-0.88,1.27-1.57,2.22-2.07c0.95-0.5,2.01-0.75,3.2-0.75c1.19,0,2.25,0.25,3.19,0.75c0.94,0.5,1.67,1.19,2.21,2.07
		c0.53,0.88,0.8,1.88,0.8,3c0,1.12-0.27,2.12-0.8,3c-0.53,0.88-1.27,1.57-2.21,2.07c-0.94,0.5-2,0.75-3.19,0.75
		C520.42,69.12,519.35,68.87,518.4,68.37z M523.67,65.58c0.54-0.57,0.81-1.33,0.81-2.28c0-0.95-0.27-1.71-0.81-2.28
		c-0.54-0.57-1.23-0.85-2.07-0.85s-1.53,0.28-2.08,0.85c-0.55,0.57-0.82,1.33-0.82,2.28c0,0.95,0.27,1.71,0.82,2.28
		c0.55,0.57,1.24,0.85,2.08,0.85S523.14,66.14,523.67,65.58z"/>
	<path class="st4" d="M540.24,58.74c0.86,0.84,1.29,2.09,1.29,3.74v6.47h-3.28v-5.96c0-0.9-0.2-1.56-0.59-2.01
		c-0.39-0.44-0.96-0.66-1.7-0.66c-0.83,0-1.48,0.26-1.97,0.77c-0.49,0.51-0.74,1.27-0.74,2.28v5.59h-3.28v-11.3h3.13v1.32
		c0.43-0.48,0.97-0.84,1.62-1.1s1.35-0.39,2.12-0.39C538.25,57.48,539.38,57.9,540.24,58.74z"/>
</g>
</svg>
