<?xml version="1.0" encoding="iso-8859-1"?>
<!-- Generator: Adobe Illustrator 19.0.0, SVG Export Plug-In . SVG Version: 6.00 Build 0) -->
<svg version="1.1" id="Capa_1" xmlns="http://www.w3.org/2000/svg" xmlns:xlink="http://www.w3.org/1999/xlink" x="0px" y="0px" viewBox="0 0 512 512" style="enable-background:new 0 0 512 512;" xml:space="preserve">
	<g>
		<path
			d="M437.02,74.98C388.667,26.629,324.38,0,256,0S123.333,26.629,74.98,74.98C26.629,123.333,0,187.62,0,256
			s26.629,132.667,74.98,181.02C123.333,485.371,187.62,512,256,512s132.667-26.629,181.02-74.98
			C485.371,388.667,512,324.38,512,256S485.371,123.333,437.02,74.98z M481.49,241H370.807c-0.868-35.034-4.769-68.75-11.401-99.409
			c28.258-5.391,54.155-12.993,76.258-22.523C461.867,153.366,478.484,195.351,481.49,241z M414.687,95.249
			c-18.554,7.175-39.735,12.982-62.663,17.253c-3.396-11.522-7.221-22.45-11.459-32.664c-6.63-15.979-14.097-29.725-22.232-41.091
			C355.148,49.326,388.135,69.035,414.687,95.249z M171.199,241c0.896-34.96,4.892-66.857,11.032-94.675
			C205.885,149.394,230.717,151,256,151s50.115-1.606,73.769-4.675c6.141,27.817,10.136,59.714,11.032,94.675H171.199z M340.801,271
			c-0.896,34.96-4.892,66.857-11.032,94.675C306.115,362.606,281.283,361,256,361s-50.115,1.606-73.769,4.675
			c-6.141-27.817-10.136-59.714-11.032-94.675H340.801z M256,30c23.855,0,49.327,32.679,66.098,87.078
			C300.911,119.649,278.685,121,256,121s-44.911-1.351-66.098-3.922C206.673,62.679,232.145,30,256,30z M193.668,38.747
			c-8.137,11.367-15.603,25.113-22.233,41.091c-4.238,10.214-8.063,21.142-11.458,32.663c-22.928-4.271-44.109-10.078-62.663-17.252
			C123.866,69.035,156.852,49.326,193.668,38.747z M76.336,119.068c22.103,9.531,48,17.133,76.258,22.523
			c-6.632,30.659-10.533,64.375-11.401,99.409H30.51C33.516,195.351,50.133,153.366,76.336,119.068z M30.51,271h110.683
			c0.868,35.034,4.769,68.75,11.401,99.409c-28.258,5.391-54.155,12.992-76.258,22.523C50.133,358.633,33.516,316.649,30.51,271z
			 M97.312,416.751c18.555-7.175,39.736-12.982,62.664-17.253c3.396,11.521,7.22,22.45,11.458,32.664
			c6.63,15.979,14.097,29.725,22.232,41.091C156.851,462.674,123.864,442.965,97.312,416.751z M256,482
			c-23.855,0-49.327-32.679-66.098-87.078C211.089,392.351,233.315,391,256,391s44.911,1.351,66.098,3.922
			C305.327,449.321,279.855,482,256,482z M318.332,473.253c8.137-11.367,15.603-25.113,22.233-41.091
			c4.238-10.214,8.063-21.142,11.458-32.663c22.928,4.271,44.109,10.078,62.663,17.252
			C388.134,442.965,355.148,462.674,318.332,473.253z M435.664,392.932c-22.103-9.531-48-17.133-76.258-22.523
			c6.632-30.659,10.533-64.375,11.401-99.409H481.49C478.484,316.649,461.867,358.634,435.664,392.932z"/>
	</g>
</svg>