<?xml version="1.0" encoding="utf-8"?>
<!-- Generator: Adobe Illustrator 24.1.0, SVG Export Plug-In . SVG Version: 6.00 Build 0)  -->
<svg version="1.1" id="Layer_1" xmlns="http://www.w3.org/2000/svg" xmlns:xlink="http://www.w3.org/1999/xlink" x="0px" y="0px"
	 viewBox="0 0 179 61" style="enable-background:new 0 0 179 61;" xml:space="preserve">
<style type="text/css">
	.st0{fill:#FFFFFF;}
</style>
<path class="st0" d="M162.6,134.2c-1.3-4.9-6.5-7.9-11.4-6.5c-0.9,0.2-1.7,0.6-2.4,1c-1.7-1.1-3.4-2.2-5.1-3.3c1-2.8,1.3-5.9,0.4-9
	c-2.1-7.8-10.2-12.4-17.9-10.2c-7.8,2.1-12.4,10.2-10.2,17.9c0.9,3.5,3.1,6.3,5.8,8.2c-0.7,1.5-1.5,2.9-2.2,4.4
	c-1.8,3.6-3.6,7.2-5.3,10.8c-3.9-1.7-8.4-2.1-12.8-0.9c-3.7,1-6.9,3.1-9.4,5.7c-1.2-0.7-2.4-1.5-3.6-2.2c1.5-3.3,1.9-7.1,0.9-10.9
	c-2.3-8.6-11.2-13.6-19.7-11.3c-0.3,0.1-0.6,0.2-0.9,0.3c0,0-0.1,0-0.1,0c-0.3,0.1-0.6,0.2-0.9,0.3c-0.1,0-0.1,0.1-0.2,0.1
	c-0.4,0.2-0.9,0.4-1.3,0.6c-0.2,0.1-0.4,0.2-0.6,0.3c-0.2,0.1-0.4,0.2-0.5,0.3c-0.3,0.2-0.7,0.4-1,0.7c-0.1,0.1-0.2,0.2-0.3,0.3
	c-0.3,0.3-0.7,0.6-1,0.9c0,0,0,0,0,0c0,0,0,0,0,0c-1.2-0.8-2.5-1.6-3.7-2.3c1.9-4.1,2.4-8.7,1.1-13.4c-2.9-10.5-13.7-16.7-24.2-13.8
	c-10.5,2.9-16.7,13.7-13.8,24.2c1.1,3.9,3.3,7.3,6.2,9.7c-0.5,1.1-1.1,2.2-1.6,3.3c-2.1,4.3-4.2,8.5-6.3,12.8
	c-2.1-0.4-4.3-0.3-6.5,0.3c-2.6,0.7-4.8,2-6.5,3.8c-1.5-1-3-1.9-4.5-2.9c0.6-1.7,0.8-3.7,0.2-5.6c-1.3-4.9-6.5-7.9-11.4-6.5
	c-4.9,1.3-7.9,6.5-6.5,11.4c1.3,4.9,6.5,7.9,11.4,6.5c0.9-0.2,1.7-0.6,2.4-1c1.7,1.1,3.4,2.2,5.1,3.3c-1,2.8-1.3,5.9-0.4,9
	c2.1,7.8,10.2,12.4,17.9,10.2c7.8-2.1,12.4-10.2,10.2-17.9c-0.9-3.5-3.1-6.3-5.8-8.2c0.7-1.5,1.5-2.9,2.2-4.4
	c1.8-3.6,3.6-7.2,5.3-10.8c3.9,1.7,8.4,2.1,12.8,0.9c3.7-1,6.9-3.1,9.4-5.7c1.2,0.7,2.4,1.5,3.6,2.2c-1.5,3.3-1.9,7.1-0.9,10.9
	c2.3,8.6,11.2,13.6,19.7,11.3c0.3-0.1,0.6-0.2,0.9-0.3c0,0,0.1,0,0.1,0c0.3-0.1,0.6-0.2,0.9-0.3c0.1,0,0.1-0.1,0.2-0.1
	c0.5-0.2,0.9-0.4,1.3-0.6c0.2-0.1,0.4-0.2,0.6-0.3c0.2-0.1,0.4-0.2,0.5-0.3c0.3-0.2,0.7-0.4,1-0.7c0.1-0.1,0.2-0.2,0.3-0.3
	c0.3-0.3,0.7-0.6,1-0.9c0,0,0,0,0,0c0,0,0,0,0,0c1.2,0.8,2.5,1.6,3.7,2.3c-1.9,4.1-2.4,8.7-1.1,13.4c2.9,10.5,13.7,16.7,24.2,13.8
	c10.5-2.9,16.7-13.7,13.8-24.2c-1.1-3.9-3.3-7.3-6.2-9.7c0.5-1.1,1.1-2.2,1.6-3.3c2.1-4.3,4.2-8.5,6.3-12.8c2.1,0.4,4.3,0.3,6.5-0.3
	c2.6-0.7,4.8-2,6.5-3.8c1.5,1,3,1.9,4.5,2.9c-0.6,1.7-0.8,3.7-0.2,5.6c1.3,4.9,6.5,7.9,11.4,6.5C161.1,144.3,164,139.2,162.6,134.2z
	 M1.1,153.7c-1.2,2.7-4.4,4.6-7.4,4.3c-0.1,0-0.2,0-0.3,0c-3.1-0.2-5.9-2.4-6.8-5.6c-0.8-2.8,0.2-5.8,2.2-7.6c0.4-0.4,0.9-0.7,1.4-1
	c0,0,0,0,0.1,0c0,0,0,0,0.1,0c0.5-0.3,1.1-0.5,1.7-0.7c0.2-0.1,0.4-0.1,0.6-0.1c1-0.2,2-0.2,3,0c1.4,0.2,2.8,1,3.9,2
	c1.1,1,1.9,2.5,2.2,3.9C2.1,150.5,1.9,152.1,1.1,153.7z M26.2,157.7c1.8,1.7,3.1,4,3.5,6.4c0.5,2.7,0.2,5.4-0.9,7.9
	c-0.7,1.5-1.7,2.8-2.9,3.9c-1.4,1.3-3.1,2.3-5,2.8c-3.7,1-7.5,0.2-10.4-2c-0.3-0.2-0.5-0.4-0.8-0.6c-1.9-1.6-3.3-3.8-4-6.2
	c0-0.1-0.1-0.2-0.1-0.3c-1.3-5.4,1.2-11.4,6.3-13.9c2.5-1.2,5.2-1.6,7.9-1.2C22.2,154.9,24.5,156.1,26.2,157.7z M56.2,128.4
	c-2.7,6.2-9.6,10.2-16.4,9.6c-3.6-0.3-6.8-1.6-9.6-3.9c-2.6-2.1-4.5-5.2-5.4-8.4c0-0.1-0.1-0.2-0.1-0.3c-0.2-0.8-0.3-1.7-0.4-2.6
	c-0.8-6.6,3.1-13.5,9-16.4c3.3-1.6,6.9-2.2,10.6-1.6c3.2,0.5,6.3,2.1,8.7,4.4c2.4,2.3,4.2,5.5,4.8,8.8
	C58.1,121.6,57.7,125.1,56.2,128.4z M61.3,148.6c-0.2-0.5-0.4-1.1-0.6-1.6c0,0,0-0.1,0-0.1c0,0,0,0,0-0.1c0,0,0,0,0,0c0,0,0,0,0,0
	c0,0,0,0,0,0c0,0,0-0.1,0-0.1c-0.2-0.7-0.3-1.5-0.4-2.2c-0.6-5.4,2.5-11,7.4-13.4c2.6-1.3,5.3-1.7,8.1-1.4c4.7,0.7,8.8,3.8,10.6,8.3
	c0.2,0.5,0.4,1.1,0.6,1.6c0,0,0,0.1,0,0.1c0,0,0,0,0,0.1c0,0,0,0,0,0c0,0,0,0,0,0c0,0,0,0,0,0c0,0,0,0.1,0,0.1
	c0.2,0.7,0.3,1.5,0.4,2.2c0.6,5.4-2.5,11-7.4,13.4c-2.6,1.3-5.3,1.7-8.1,1.4C67.3,156.3,63.2,153.2,61.3,148.6z M122.9,161.3
	c0,0.1,0.1,0.2,0.1,0.3c0.2,0.8,0.3,1.7,0.4,2.6c0.8,6.6-3.1,13.5-9,16.4c-3.3,1.6-6.9,2.2-10.6,1.6c-3.2-0.5-6.3-2.1-8.7-4.4
	c-2.4-2.3-4.2-5.5-4.8-8.8c-0.7-3.6-0.2-7.1,1.2-10.4c2.7-6.2,9.6-10.2,16.4-9.6c3.6,0.3,6.8,1.6,9.6,3.9
	C120.2,155.1,122,158.1,122.9,161.3z M135.9,131.4c-2.5,1.2-5.2,1.6-7.9,1.2c-2.4-0.4-4.6-1.6-6.3-3.2c-1.8-1.7-3.1-4-3.5-6.4
	c-0.5-2.7-0.2-5.4,0.9-7.9c0.7-1.5,1.7-2.8,2.9-3.9c1.4-1.3,3.1-2.3,5-2.8c3.7-1,7.5-0.2,10.4,2c0.3,0.2,0.5,0.4,0.8,0.6
	c1.9,1.6,3.3,3.8,4,6.2c0,0.1,0.1,0.2,0.1,0.3C143.5,122.9,140.9,128.9,135.9,131.4z M158.9,142.3c-0.4,0.4-0.9,0.7-1.4,1
	c0,0,0,0-0.1,0c0,0,0,0-0.1,0c-0.5,0.3-1.1,0.5-1.7,0.7c-0.2,0.1-0.4,0.1-0.6,0.1c-1,0.2-2,0.2-3,0c-1.4-0.2-2.8-1-3.9-2
	c-1.1-1-1.9-2.5-2.2-3.9c-0.3-1.7-0.1-3.4,0.6-5c1.2-2.7,4.4-4.6,7.4-4.3c0.1,0,0.2,0,0.3,0c3.1,0.2,5.9,2.4,6.8,5.6
	C161.9,137.5,160.9,140.4,158.9,142.3z"/>
<path class="st0" d="M153.7,0.5c1.9,1.6,3.3,3.8,4,6.2c0,0.1,0.1,0.2,0.1,0.3c1.3,5.4-1.2,11.4-6.3,13.9c-2.5,1.2-5.2,1.6-7.9,1.2
	c-2.4-0.4-4.6-1.6-6.3-3.2c-1.8-1.7-3.1-4-3.5-6.4c-0.5-2.7-0.2-5.4,0.9-7.9c0.7-1.5,1.7-2.8,2.9-3.9c0.3-0.3,0.6-0.5,1-0.8H135
	c-3.3,3.6-4.8,8.7-3.4,13.8c0.9,3.5,3.1,6.3,5.8,8.2c-0.7,1.5-1.5,2.9-2.2,4.4c-1.8,3.6-3.6,7.2-5.3,10.8c-3.9-1.7-8.4-2.1-12.8-0.9
	c-3.7,1-6.9,3.1-9.4,5.7c-1.2-0.7-2.4-1.5-3.6-2.2c1.5-3.3,1.9-7.1,0.9-10.9c-2.3-8.6-11.2-13.6-19.7-11.3c-0.3,0.1-0.6,0.2-0.9,0.3
	c0,0-0.1,0-0.1,0c-0.3,0.1-0.6,0.2-0.9,0.3c-0.1,0-0.1,0.1-0.2,0.1c-0.4,0.2-0.9,0.4-1.3,0.6c-0.2,0.1-0.4,0.2-0.6,0.3
	c-0.2,0.1-0.4,0.2-0.5,0.3c-0.3,0.2-0.7,0.4-1,0.7c-0.1,0.1-0.2,0.2-0.3,0.3c-0.3,0.3-0.7,0.6-1,0.9c0,0,0,0,0,0c0,0,0,0,0,0
	c-1.2-0.8-2.5-1.6-3.7-2.3c1.9-4.1,2.4-8.7,1.1-13.4C75.1,3.7,74.2,1.7,73,0h-3.8c1.9,2.2,3.2,4.8,3.8,7.7c0.7,3.6,0.2,7.1-1.2,10.4
	c-2.7,6.2-9.6,10.2-16.4,9.6c-3.6-0.3-6.8-1.6-9.6-3.9c-2.6-2.1-4.5-5.2-5.4-8.4c0-0.1-0.1-0.2-0.1-0.3c-0.2-0.8-0.3-1.7-0.4-2.6
	C39.4,8,41,3.4,43.9,0h-3.5c-3.1,4.6-4.3,10.5-2.7,16.2c1.1,3.9,3.3,7.3,6.2,9.7c-0.5,1.1-1.1,2.2-1.6,3.3
	c-2.1,4.3-4.2,8.5-6.3,12.8c-2.1-0.4-4.3-0.3-6.5,0.3c-2.6,0.7-4.8,2-6.5,3.8c-1.5-1-3-1.9-4.5-2.9c0.6-1.7,0.8-3.7,0.2-5.6
	c-1.3-4.9-6.5-7.9-11.4-6.5c-4.9,1.3-7.9,6.5-6.5,11.4C2,47.4,7.2,50.3,12.1,49c0.9-0.2,1.7-0.6,2.4-1c1.7,1.1,3.4,2.2,5.1,3.3
	c-1,2.8-1.3,5.9-0.4,9c0.1,0.3,0.2,0.5,0.2,0.7h2.3c-0.2-0.5-0.4-0.9-0.5-1.4c0-0.1-0.1-0.2-0.1-0.3c-1.3-5.4,1.2-11.4,6.3-13.9
	c2.5-1.2,5.2-1.6,7.9-1.2c2.4,0.4,4.6,1.6,6.3,3.2c1.8,1.7,3.1,4,3.5,6.4c0.5,2.5,0.2,4.9-0.7,7.2h2.5c0.9-2.6,1-5.6,0.2-8.4
	c-0.9-3.5-3.1-6.3-5.8-8.2c0.7-1.5,1.5-2.9,2.2-4.4c1.8-3.6,3.6-7.2,5.3-10.8c3.9,1.7,8.4,2.1,12.8,0.9c3.7-1,6.9-3.1,9.4-5.7
	c1.2,0.7,2.4,1.5,3.6,2.2c-1.5,3.3-1.9,7.1-0.9,10.9c2.3,8.6,11.2,13.6,19.7,11.3c0.3-0.1,0.6-0.2,0.9-0.3c0,0,0.1,0,0.1,0
	c0.3-0.1,0.6-0.2,0.9-0.3c0.1,0,0.1-0.1,0.2-0.1c0.5-0.2,0.9-0.4,1.3-0.6c0.2-0.1,0.4-0.2,0.6-0.3c0.2-0.1,0.4-0.2,0.5-0.3
	c0.3-0.2,0.7-0.4,1-0.7c0.1-0.1,0.2-0.2,0.3-0.3c0.3-0.3,0.7-0.6,1-0.9c0,0,0,0,0,0c0,0,0,0,0,0c1.2,0.8,2.5,1.6,3.7,2.3
	c-1.9,4.1-2.4,8.7-1.1,13.4c0,0.2,0.1,0.3,0.2,0.5h3.2c-0.3-0.7-0.5-1.5-0.6-2.3c-0.7-3.6-0.2-7.1,1.2-10.4
	c2.7-6.2,9.6-10.2,16.4-9.6c3.6,0.3,6.8,1.6,9.6,3.9c2.6,2.1,4.5,5.2,5.4,8.4c0,0.1,0.1,0.2,0.1,0.3c0.2,0.8,0.3,1.7,0.4,2.6
	c0.3,2.4-0.1,4.9-0.9,7.1h2.9c1-3.4,1.2-7.1,0.2-10.8c-1.1-3.9-3.3-7.3-6.2-9.7c0.5-1.1,1.1-2.2,1.6-3.3c2.1-4.3,4.2-8.5,6.3-12.8
	c2.1,0.4,4.3,0.3,6.5-0.3c2.6-0.7,4.8-2,6.5-3.8c1.5,1,3,1.9,4.5,2.9c-0.6,1.7-0.8,3.7-0.2,5.6c1.3,4.9,6.5,7.9,11.4,6.5
	c4.9-1.3,7.9-6.5,6.5-11.4c-1.3-4.9-6.5-7.9-11.4-6.5c-0.9,0.2-1.7,0.6-2.4,1c-1.7-1.1-3.4-2.2-5.1-3.3c1-2.8,1.3-5.9,0.4-9
	c-0.6-2.4-1.9-4.4-3.4-6.1h-3.4C153.2,0.2,153.4,0.3,153.7,0.5z M16.7,43.4c-1.2,2.7-4.4,4.6-7.4,4.3c-0.1,0-0.2,0-0.3,0
	c-3.1-0.2-5.9-2.4-6.8-5.6c-0.8-2.8,0.2-5.8,2.2-7.6c0.4-0.4,0.9-0.7,1.4-1c0,0,0,0,0.1,0c0,0,0,0,0.1,0C6.5,33,7,32.8,7.6,32.6
	c0.2-0.1,0.4-0.1,0.6-0.1c1-0.2,2-0.2,3,0c1.4,0.2,2.8,1,3.9,2c1.1,1,1.9,2.5,2.2,3.9C17.6,40.1,17.4,41.8,16.7,43.4z M95.6,45.2
	c-2.6,1.3-5.3,1.7-8.1,1.4c-4.7-0.7-8.8-3.8-10.6-8.3c-0.2-0.5-0.4-1.1-0.6-1.6c0,0,0-0.1,0-0.1c0,0,0,0,0-0.1c0,0,0,0,0,0
	c0,0,0,0,0,0c0,0,0,0,0,0c0,0,0-0.1,0-0.1c-0.2-0.7-0.3-1.5-0.4-2.2c-0.6-5.4,2.5-11,7.4-13.4c2.6-1.3,5.3-1.7,8.1-1.4
	c4.7,0.7,8.8,3.8,10.6,8.3c0.2,0.5,0.4,1.1,0.6,1.6c0,0,0,0.1,0,0.1c0,0,0,0,0,0.1c0,0,0,0,0,0c0,0,0,0,0,0c0,0,0,0,0,0
	c0,0,0,0.1,0,0.1c0.2,0.7,0.3,1.5,0.4,2.2C103.6,37.2,100.4,42.8,95.6,45.2z M162.2,22.9c1.2-2.7,4.4-4.6,7.4-4.3c0.1,0,0.2,0,0.3,0
	c3.1,0.2,5.9,2.4,6.8,5.6c0.8,2.8-0.2,5.8-2.2,7.6c-0.4,0.4-0.9,0.7-1.4,1c0,0,0,0-0.1,0c0,0,0,0-0.1,0c-0.5,0.3-1.1,0.5-1.7,0.7
	c-0.2,0.1-0.4,0.1-0.6,0.1c-1,0.2-2,0.2-3,0c-1.4-0.2-2.8-1-3.9-2c-1.1-1-1.9-2.5-2.2-3.9C161.3,26.2,161.5,24.5,162.2,22.9z"/>
</svg>
