<?xml version="1.0" encoding="UTF-8" standalone="no"?><!DOCTYPE svg PUBLIC "-//W3C//DTD SVG 1.1//EN" "http://www.w3.org/Graphics/SVG/1.1/DTD/svg11.dtd"><svg width="100%" height="100%" viewBox="0 0 2527 651" version="1.1" xmlns="http://www.w3.org/2000/svg" xmlns:xlink="http://www.w3.org/1999/xlink" xml:space="preserve" xmlns:serif="http://www.serif.com/" style="fill-rule:evenodd;clip-rule:evenodd;stroke-linejoin:round;stroke-miterlimit:2;"><rect id="Artboard1" x="0" y="0" width="2526.96" height="650.102" style="fill:none;"/><path d="M804.657,504.216l30.417,-71.25c33.333,24.583 76.667,37.5 120,37.5c31.667,0 52.083,-12.5 52.083,-31.25c-0.833,-52.083 -191.666,-11.667 -193.333,-142.917c-0.833,-66.666 58.75,-118.333 142.5,-118.333c50,0 100,12.5 135.417,40.417l-28.334,72.5c-32.5,-20.834 -72.916,-35.417 -111.25,-35.417c-26.25,0 -43.333,12.5 -43.333,28.333c0.833,51.667 193.333,23.334 195.417,148.75c-0,68.334 -57.917,115.834 -140.417,115.834c-60.833,0.833 -116.667,-13.75 -159.167,-44.167m1210.42,-96.667c-15.833,27.917 -45,45 -76.667,45c-48.75,0 -88.333,-39.583 -88.333,-88.333c0,-48.75 39.583,-88.333 88.333,-88.333c31.667,-0 61.25,17.083 76.667,45l84.583,-47.084c-31.666,-56.666 -92.083,-95 -161.25,-95c-102.083,0 -185,82.917 -185,185.417c0,102.5 82.917,185.417 185,185.417c69.167,-0 129.584,-38.334 161.25,-95l-84.583,-47.084Zm-855.833,134.167l105.833,0l0,-517.5l-105.833,0l-0,517.5Zm993.75,-517.917l-0,517.917l105.833,0l0,-155l125.417,155l135,0l-159.167,-184.167l147.5,-172.083l-129.167,0l-119.583,142.917l0,-304.584l-105.833,0Zm-562.5,162.084l-0,42.083c-17.5,-29.167 -60,-49.167 -105,-49.167c-92.5,0 -165.834,82.084 -165.834,185c0,102.917 72.917,185.834 165.834,185.834c45,-0 87.5,-20.417 105,-49.167l-0,42.083l105.833,0l0,-356.25l-105.833,0l-0,-0.416Zm-0,222.083c-15,25.417 -47.084,44.167 -82.5,44.167c-48.75,-0 -88.334,-39.584 -88.334,-88.334c0,-48.75 39.584,-88.333 88.334,-88.333c35.416,0 67.5,19.583 82.5,45.833l-0,86.667Z" style="fill-rule:nonzero;"/><path d="M246.324,12.966c-34.167,0 -62.083,27.917 -62.083,62.083c-0,34.167 27.916,62.084 62.083,62.084l62.083,-0l0,-62.084c0,-34.166 -27.5,-62.083 -62.083,-62.083m0,165.417l-165,-0c-34.167,-0 -62.083,27.916 -62.083,62.083c-0,34.167 27.916,62.083 62.083,62.083l165.417,0c34.166,0 62.083,-27.916 62.083,-62.083c-0.417,-34.167 -27.917,-62.083 -62.5,-62.083" style="fill:#36c5f0;fill-rule:nonzero;"/><path d="M639.241,240.466c-0,-34.167 -27.917,-62.083 -62.084,-62.083c-34.166,-0 -62.083,27.916 -62.083,62.083l0,62.083l62.083,0c34.167,0.417 62.084,-27.5 62.084,-62.083m-165.417,0l0,-165.833c0,-34.167 -27.917,-62.084 -62.083,-62.084c-34.167,0 -62.084,27.917 -62.084,62.084l0,165.833c0,34.167 27.917,62.083 62.084,62.083c34.583,0.417 62.083,-27.5 62.083,-62.083" style="fill:#2eb67d;fill-rule:nonzero;"/><path d="M411.741,634.216c34.166,0 62.083,-27.917 62.083,-62.083c0,-34.167 -27.917,-62.084 -62.083,-62.084l-62.084,0l0,62.084c0,34.166 27.917,62.083 62.084,62.083m-0,-165.833l165.416,-0c34.167,-0 62.084,-27.917 62.084,-62.084c-0,-34.166 -27.917,-62.083 -62.084,-62.083l-165.416,0c-34.167,0 -62.084,27.917 -62.084,62.083c0,34.167 27.917,62.084 62.084,62.084" style="fill:#ecb22e;fill-rule:nonzero;"/><path d="M19.241,410.466c-0,34.167 27.916,62.083 62.083,62.083c34.167,0 62.083,-27.916 62.083,-62.083l0,-62.083l-62.083,-0c-34.583,-0 -62.083,27.916 -62.083,62.083m165.416,0l0,165.833c0,34.167 27.917,62.084 62.084,62.084c34.166,-0 62.083,-27.917 62.083,-62.084l0,-165.833c0,-34.167 -27.917,-62.083 -62.083,-62.083c-34.584,-0 -62.084,27.916 -62.084,62.083" style="fill:#e01e5a;fill-rule:nonzero;"/></svg>